<?xml version="1.0" encoding="UTF-8" standalone="no"?>
<!DOCTYPE svg PUBLIC "-//W3C//DTD SVG 1.1//EN" "http://www.w3.org/Graphics/SVG/1.1/DTD/svg11.dtd">
<svg xmlns:xl="http://www.w3.org/1999/xlink" xmlns:dc="http://purl.org/dc/elements/1.1/" version="1.1" xmlns="http://www.w3.org/2000/svg" viewBox="30 60 1080 1080" width="1080" height="1080">
  <defs/>
  <metadata> Produced by OmniGraffle 7.16 
    <dc:date>2020-06-06 20:32:59 +0000</dc:date>
  </metadata>
  <g id="Canvas_27" fill="none" stroke="none" fill-opacity="1" stroke-dasharray="none" stroke-opacity="1">
    <title>Canvas 27</title>
    <g id="Canvas_27: Layer 1">
      <title>Layer 1</title>
      <g id="Graphic_12">
        <path d="M 30 766.8578 L 30 904.4725 L 370.3846 600 L 30 295.52752 L 30 433.1422 L 216.53846 600 Z M 30 570.7569 L 30 629.2431 L 62.69231 600 Z M 30 1042.0872 L 30 1140 L 74.384615 1140 L 678.0769 600 L 74.384615 60 L 30 60 L 30 157.91284 L 524.2308 600 Z M 228.23077 1140 L 382.07692 1140 L 985.7692 600 L 382.07692 60 L 228.23077 60 L 831.9231 600 Z M 535.9231 1140 L 689.7692 1140 L 1110 764.1055 L 1110 626.4908 Z M 1110 573.5092 L 1110 435.8945 L 689.7692 60 L 535.9231 60 Z M 843.6154 1140 L 997.4615 1140 L 1110 1039.3349 L 1110 901.7202 Z M 1110 298.2798 L 1110 160.66514 L 997.4615 60 L 843.6154 60 Z" fill="#F20285"/>
      </g>
    </g>
  </g>
</svg>
