<?xml version="1.0" encoding="UTF-8" standalone="no"?>
<svg width="100%" height="100%" viewBox="0 0 126 132" version="1.1" xmlns="http://www.w3.org/2000/svg" xmlns:xlink="http://www.w3.org/1999/xlink" xml:space="preserve">
    <path id="flag2" d="M63.64,45.43c0.3,0.05 0.86,0 1.3,-0.19c0.43,-0.18 0.35,-0.55 -0.03,-0.67c-0.38,-0.12 -0.88,0 -1.33,0.28c-0.38,0.23 -0.24,0.54 0.06,0.59l0,-0.01Zm26.39,-36.59c-16.31,-0 -29.59,19.06 -30.96,25.31c-1.37,6.25 -5.64,3.2 -6.4,-0.61c-0.76,-3.81 -5.42,-12.43 -16.71,-12.43c-8.08,-0 -22.92,8.92 -23.23,37.43c-0.38,34.31 38.35,50.05 43.74,60.94c6.05,-17.98 52.01,-46.46 53.24,-82.14c0.45,-13.11 -4.73,-28.52 -19.67,-28.52l-0.01,0.02Zm-11.98,70.11c-0.38,0.74 -1.43,0.88 -2.11,0.44c-1.03,0.08 -3.03,0.27 -3.49,0.31c0.68,0.33 1.49,0.74 1.89,0.94c1.6,-0.49 2.46,0.04 2.35,1.22c0.38,0.56 0.35,1.4 -0.11,1.83c-0.11,-0.48 -0.38,-1.07 -0.76,-1.38c-0.97,0.29 -1.67,0.04 -1.97,-1.01c-0.62,-0.34 -1.43,-0.77 -1.76,-0.95c-0.32,-0.18 -0.58,-0.4 -1.32,0c-0.73,0.4 -1.41,0.75 -1.84,1.03c-0.24,0.97 -1.16,1.13 -1.76,0.76c-0.38,0.26 -0.7,0.67 -0.92,1.1c-0.35,-0.59 -0.16,-1.45 0.51,-1.73c0.24,-0.76 1.11,-1.09 1.73,-0.81c0.51,-0.27 1.24,-0.7 1.57,-0.87c-1.05,-0.27 -3.73,-0.99 -4.68,-1.29c-0.89,0.77 -1.89,1.53 -2.62,1.41c-0.11,-0.64 -0.44,-1.14 -0.9,-2.02c-0.72,-1.4 -1.61,-2.69 -2.34,-3.47c-0.73,-0.78 -1.47,-0.21 -1.42,0.96c0.12,2.83 2.22,6.87 5.3,6.7c1.05,-0.05 1.47,0.12 0.89,0.96c-0.54,0.79 -2.22,1.06 -3.15,0.47c-0.93,-0.59 -1.26,-0.52 -1.07,0.38c0.19,0.9 1.25,1.14 2.03,1.11c1.13,-0.04 2.43,0.23 1.38,1.32c-1.05,1.09 -2.79,0.73 -4.06,-0.6c-0.44,-0.46 -0.79,-0.57 -0.76,0.24c0.05,1.4 0.89,2.21 1.76,2.31c0.86,0.1 1.73,0.24 1.49,0.76c-0.41,0.88 -1.76,1.16 -2.52,0.84c-0.76,-0.33 -1.57,-1 -1.73,-1.44c-0.16,-0.44 -0.49,-0.14 -0.41,0.48c0.19,1.34 1.14,1.21 1.14,2.32c0,1.11 -0.92,2.29 -2,3.63c-1.08,-1.11 -2,-2.09 -2,-3.2c0,-1.11 0.95,-1.18 1.14,-2.56c0.09,-0.64 -0.24,-0.87 -0.41,-0.39c-0.16,0.48 -0.97,1.32 -1.73,1.81c-0.76,0.48 -2.11,0.49 -2.51,-0.3c-0.24,-0.48 0.62,-0.8 1.49,-1.08c0.87,-0.28 1.7,-1.26 1.76,-2.68c0.03,-0.82 -0.32,-0.64 -0.76,-0.08c-1.27,1.6 -3,2.32 -4.06,1.46c-1.05,-0.86 0.24,-1.41 1.38,-1.61c0.78,-0.14 1.84,-0.6 2.03,-1.54c0.19,-0.94 -0.14,-0.95 -1.07,-0.16c-0.93,0.79 -2.61,0.87 -3.15,0.2c-0.58,-0.72 -0.16,-0.98 0.89,-1.15c3.08,-0.49 5.18,-4.96 5.3,-7.82c0.05,-1.18 -0.69,-1.6 -1.42,-0.66c-0.73,0.93 -1.62,2.4 -2.34,3.96c-0.45,0.98 -0.78,1.55 -0.89,2.21c-0.73,0.26 -1.73,-0.28 -2.62,-0.86c-0.95,0.51 -3.62,1.79 -4.68,2.28c0.32,0.1 1.05,0.38 1.57,0.54c0.62,-0.42 1.49,-0.27 1.73,0.44c0.68,0.14 0.87,0.96 0.52,1.62c-0.22,-0.38 -0.54,-0.73 -0.92,-0.91c-0.59,0.5 -1.51,0.54 -1.76,-0.38c-0.43,-0.2 -1.11,-0.4 -1.84,-0.65c-0.74,-0.25 -1,0.03 -1.33,0.28c-0.32,0.25 -1.14,0.85 -1.76,1.33c-0.3,1.11 -1,1.51 -1.97,1.43c-0.38,0.39 -0.65,1.04 -0.76,1.54c-0.46,-0.33 -0.49,-1.17 -0.11,-1.8c-0.11,-1.15 0.76,-1.87 2.35,-1.71c0.4,-0.29 1.22,-0.86 1.89,-1.34c-0.46,0.05 -2.46,0.29 -3.49,0.42c-0.68,0.59 -1.73,0.67 -2.11,0c-0.46,-0.2 -1.11,0.12 -1.81,0.27c0.24,-0.84 0.97,-1.35 1.91,-1.24c0.57,-0.59 1.3,-0.67 2.07,0.03c0.81,0 1.95,-0.04 3.49,-0.17c-0.49,-0.27 -1.17,-0.69 -1.99,-1.09c-0.73,0.32 -1.5,0.12 -1.75,-0.43c-0.53,-0.43 -1.14,-0.25 -1.87,-0.05c0.08,-1.19 0.97,-1.4 2.23,-1.05c0.73,-0.48 1.87,-0.2 2.03,0.72c0.49,0.64 1.46,0.94 2.56,1.56c1.38,-0.71 3.12,-1.47 4.79,-2.5c-0.37,-0.33 -0.73,-0.74 -1.14,-1.1c2.7,-1.64 4.76,-3.27 5.68,-6.29c0.31,-1.01 -0.24,-0.73 -0.49,-0.08c-0.45,1.19 -1.16,2.02 -2.3,2.65c-0.8,0.45 -1.27,-0.41 -0.68,-1.01c0.6,-0.6 1.14,-1.58 1.16,-2.7c0.02,-0.79 -0.88,-0.59 -1.03,-0.16c-1.3,3.66 -2.89,6.24 -4.25,5.79c-1.35,-0.45 -0.71,-1.31 -0,-1.73c1.38,-0.82 2.16,-2.97 2.25,-4.03c0.08,-1.07 -0.57,-0.97 -1,-0.11c-0.43,0.86 -1.62,2.53 -3.57,4.9c-1.95,2.37 -4.65,3.15 -6.14,2c-1.31,-1.01 -0.05,-1.86 1.25,-1.67c2.49,0.36 5.06,-2.49 6.6,-6.63c0.24,-0.64 -0.22,-0.69 -0.49,-0.33c-3.46,4.62 -6.35,5.3 -8.01,4.04c-0.58,-0.44 -1.24,-1.98 1.43,-1.75c2.89,0.25 4.62,-2.11 6.65,-5.31c0.9,-1.42 0.08,-1.36 -0.73,-0.49c-0.81,0.87 -2.03,1.92 -3.38,2.88c-1.35,0.96 -4.08,1.14 -4.43,-0.45c-0.35,-1.59 0.86,-1.66 2.19,-1.37c2.3,0.51 4,-1.26 5.65,-3.33c0.73,-0.92 0.43,-1.4 -0.22,-1.03c-0.65,0.37 -2.19,1.26 -3.19,1.91c-1,0.65 -3.19,1.26 -4.25,-0.1c-1.05,-1.35 0.6,-2.39 1.92,-1.58c1.32,0.81 4.57,-0.4 5.84,-2.22c1.27,-1.81 -0.16,-1.34 -0.95,-0.85c-1.99,1.24 -4.46,1.61 -6.6,0.29c-0.97,-0.6 -0.82,-1.13 -0.49,-1.74c0.19,-0.34 0.84,-0.49 1.68,-0.07c2.84,1.45 5.11,0.84 6.82,-1.7c0.68,-1.01 -0.16,-0.99 -0.95,-0.52c-3.31,1.95 -6.71,1.3 -7.71,-0.98c-0.47,-1.07 0.6,-2.45 1.68,-1.15c1.4,1.68 3.65,1.48 5.95,0.92c1.1,-0.27 1.11,-1.67 -0.05,-1.7c-2.51,-0.06 -6.49,-1.29 -7.68,-3.2c-0.99,-1.58 1,-3.76 2.06,-1.87c1.05,1.89 3.27,2.96 5.71,3.46c0.86,0.18 1.16,0.12 1.19,-0.15c0.04,-0.39 0.32,-1.09 0.59,-0.93c0.68,0.31 3.11,0.89 4.3,1.2c1.19,0.31 1.73,1.33 1.68,2.34c-0.05,1.01 -0.32,2.8 1.43,2.61c2.81,-0.3 1.64,-4.72 -0.03,-5.93c-1.29,-0.93 -2.68,-1.29 -3.73,-1.16c-1.06,0.14 -2.31,-0.16 -2.43,-1.11c-0.26,-0.03 -0.74,-0.1 -1.24,-0.04c-0.38,0.04 -1.09,-0.28 -1.45,-0.55c-0.35,-0.28 -0.77,-0.73 -0.42,-1.07c0.35,-0.33 0.91,0.11 1.12,0.5c0.22,0.4 0.68,0.65 0.92,0.65c0.35,0 0.95,0.03 1.28,0.08c0.33,0.05 0.85,-0.09 0.99,-0.27c0.27,-0.35 -0.03,-0.51 -0.39,-0.6c-0.41,-0.1 -0.85,-0.01 -0.97,0.26c-0.09,0.19 -0.25,0.38 -0.54,0.44c-0.32,-1.78 1.43,-1.89 2.89,-1.96c0.86,-1.47 3.11,-0.76 4.65,-0.19c0.73,0.09 1.97,-0.13 2.6,-0.46c0.62,-0.34 0.6,0 0.38,0.31c-0.22,0.32 -1,0.94 -1.33,1.06c-0.32,0.12 -0.22,0.27 -0.11,0.39c0.34,0.39 1.11,0.72 1.46,0.74c0.35,0.02 0.46,0.17 0.27,0.32c-0.19,0.16 -0.46,0.35 -0.73,0.46c-0.27,0.11 -0.24,0.22 -0.08,0.41c0.34,0.41 1.22,0.77 1.52,0.68c0.3,-0.09 0.32,0.07 0.22,0.22c-0.11,0.15 -0.51,0.38 -0.73,0.4c-0.22,0.02 -0.24,0.07 -0.05,0.28c0.2,0.23 0.64,0.72 1.03,0.57c0.53,-0.21 0.66,-0.09 0.5,0.15c-0.38,0.57 -0.36,0.79 0.4,0.84c0.76,-0.21 0.78,-0.44 0.4,-0.92c-0.16,-0.21 -0.03,-0.35 0.5,-0.25c0.39,0.07 0.83,-0.51 1.03,-0.79c0.18,-0.25 0.16,-0.29 -0.06,-0.26c-0.22,0.02 -0.62,-0.12 -0.73,-0.25c-0.11,-0.12 -0.08,-0.29 0.22,-0.27c0.3,0.02 1.18,-0.52 1.51,-1c0.16,-0.23 0.19,-0.35 -0.08,-0.4c-0.27,-0.05 -0.54,-0.19 -0.73,-0.3c-0.19,-0.12 -0.08,-0.29 0.27,-0.38c0.35,-0.09 1.12,-0.58 1.46,-1.05c0.11,-0.15 0.22,-0.32 -0.11,-0.37c-0.32,-0.05 -1.11,-0.51 -1.33,-0.78c-0.22,-0.28 -0.24,-0.6 0.38,-0.39c0.62,0.21 1.87,0.16 2.6,-0.08c1.54,-0.89 3.79,-2.08 4.65,-0.79c1.46,-0.24 3.22,-0.5 2.89,1.35c-0.29,0 -0.45,-0.15 -0.54,-0.32c-0.13,-0.25 -0.56,-0.25 -0.97,-0.06c-0.36,0.17 -0.65,0.39 -0.39,0.68c0.13,0.15 0.66,0.17 0.99,0.06c0.33,-0.12 0.93,-0.27 1.28,-0.35c0.24,-0.05 0.7,-0.4 0.92,-0.84c0.22,-0.44 0.77,-1 1.12,-0.74c0.35,0.26 -0.07,0.81 -0.42,1.15c-0.35,0.35 -1.07,0.82 -1.45,0.86c-0.5,0.05 -0.99,0.23 -1.24,0.31c-0.12,0.97 -1.38,1.54 -2.43,1.62c-1.05,0.08 -2.45,0.74 -3.73,1.94c-1.66,1.55 -2.84,6.23 -0.03,5.93c1.76,-0.19 1.49,-1.92 1.43,-2.92c-0.05,-1 0.49,-2.14 1.68,-2.7c1.19,-0.56 3.62,-1.66 4.3,-2.11c0.27,-0.22 0.56,0.42 0.6,0.8c0.03,0.27 0.33,0.26 1.19,-0.1c2.44,-1.02 4.65,-2.55 5.71,-4.67c1.05,-2.12 3.04,-0.35 2.05,1.44c-1.19,2.16 -5.17,4.23 -7.68,4.82c-1.17,0.27 -1.16,1.67 -0.06,1.71c2.3,0.08 4.55,-0.2 5.95,-2.17c1.08,-1.52 2.15,-0.37 1.68,0.8c-1,2.49 -4.4,3.85 -7.71,2.6c-0.78,-0.3 -1.62,-0.14 -0.95,0.72c1.71,2.18 3.97,2.3 6.81,0.26c0.84,-0.6 1.49,-0.59 1.68,-0.29c0.33,0.54 0.48,1.04 -0.49,1.84c-2.14,1.77 -4.61,1.92 -6.6,1.1c-0.78,-0.32 -2.22,-0.5 -0.95,1.05c1.27,1.55 4.52,2.07 5.84,0.98c1.32,-1.09 2.97,-0.4 1.92,1.18c-1.06,1.57 -3.25,1.43 -4.25,0.99c-1,-0.44 -2.54,-1 -3.19,-1.24c-0.65,-0.23 -0.95,0.31 -0.21,1.08c1.65,1.72 3.35,3.14 5.65,2.14c1.33,-0.57 2.54,-0.76 2.19,0.91c-0.35,1.66 -3.08,2.06 -4.44,1.39c-1.35,-0.67 -2.57,-1.46 -3.38,-2.16c-0.81,-0.7 -1.63,-0.58 -0.73,0.65c2.03,2.77 3.76,4.77 6.65,3.9c2.68,-0.8 2.01,0.88 1.43,1.45c-1.65,1.61 -4.54,1.53 -8,-2.35c-0.27,-0.3 -0.73,-0.16 -0.49,0.43c1.54,3.82 4.11,6.12 6.6,5.24c1.29,-0.46 2.56,0.13 1.24,1.41c-1.49,1.46 -4.19,1.26 -6.14,-0.71c-1.95,-1.96 -3.14,-3.38 -3.57,-4.15c-0.43,-0.77 -1.08,-0.73 -1,0.32c0.08,1.05 0.87,3.03 2.24,3.56c0.71,0.28 1.35,1 -0,1.73c-1.35,0.74 -2.95,-1.5 -4.24,-4.89c-0.15,-0.4 -1.05,-0.41 -1.03,0.38c0.03,1.11 0.57,1.97 1.16,2.45c0.6,0.48 0.13,1.44 -0.68,1.16c-1.14,-0.39 -1.85,-1.08 -2.3,-2.17c-0.24,-0.6 -0.79,-0.75 -0.49,0.19c0.92,2.83 2.98,4.02 5.68,5.09c-0.4,0.45 -0.77,0.93 -1.13,1.34c1.66,0.68 3.41,1.06 4.79,1.49c1.09,-0.85 2.07,-1.36 2.55,-2.1c0.16,-0.95 1.3,-1.48 2.03,-1.15c1.26,-0.62 2.15,-0.59 2.23,0.58c-0.73,-0.04 -1.34,-0.1 -1.87,0.44c-0.24,0.59 -1.01,0.96 -1.74,0.79c-0.81,0.57 -1.5,1.13 -1.99,1.51c1.54,-0.2 2.68,-0.4 3.49,-0.57c0.77,-0.85 1.5,-0.93 2.07,-0.46c0.93,-0.3 1.66,0.05 1.91,0.84c-0.7,0 -1.35,-0.18 -1.81,0.11l0.05,0.01Zm-28.8,-32.6c-0.45,-0.18 -0.95,-0.2 -1.33,0c-0.38,0.2 -0.46,0.59 -0.03,0.68c0.43,0.09 1,0.03 1.3,-0.08c0.3,-0.11 0.43,-0.45 0.06,-0.6Z" style="fill:rgb(218,41,28);fill-rule:nonzero;"/>
    <path id="flag1" d="M77.96,77.99c-0.57,-0.47 -1.3,-0.39 -2.07,0.46c-0.81,0.17 -1.95,0.37 -3.49,0.57c0.49,-0.38 1.18,-0.94 1.99,-1.51c0.73,0.17 1.5,-0.2 1.74,-0.79c0.53,-0.54 1.14,-0.49 1.87,-0.44c-0.08,-1.17 -0.98,-1.2 -2.23,-0.58c-0.73,-0.33 -1.87,0.2 -2.03,1.15c-0.49,0.74 -1.46,1.25 -2.55,2.1c-1.38,-0.42 -3.13,-0.81 -4.79,-1.49c0.36,-0.41 0.73,-0.89 1.13,-1.34c-2.7,-1.07 -4.76,-2.26 -5.68,-5.09c-0.31,-0.94 0.24,-0.78 0.49,-0.19c0.45,1.09 1.16,1.78 2.3,2.17c0.81,0.28 1.27,-0.68 0.68,-1.16c-0.59,-0.48 -1.14,-1.34 -1.16,-2.45c-0.02,-0.78 0.87,-0.78 1.03,-0.38c1.3,3.39 2.89,5.63 4.24,4.89c1.35,-0.74 0.71,-1.46 0,-1.73c-1.38,-0.53 -2.16,-2.51 -2.24,-3.56c-0.08,-1.05 0.57,-1.09 1,-0.32c0.43,0.77 1.62,2.19 3.57,4.15c1.95,1.96 4.65,2.17 6.14,0.71c1.31,-1.29 0.05,-1.87 -1.24,-1.41c-2.49,0.88 -5.06,-1.42 -6.6,-5.24c-0.24,-0.59 0.22,-0.73 0.49,-0.43c3.46,3.89 6.35,3.96 8,2.35c0.58,-0.56 1.24,-2.24 -1.43,-1.45c-2.89,0.86 -4.62,-1.14 -6.65,-3.9c-0.9,-1.23 -0.08,-1.35 0.73,-0.65c0.81,0.7 2.03,1.49 3.38,2.16c1.35,0.67 4.08,0.27 4.44,-1.39c0.35,-1.66 -0.86,-1.48 -2.19,-0.91c-2.3,1 -4,-0.42 -5.65,-2.14c-0.74,-0.77 -0.43,-1.31 0.21,-1.08c0.65,0.23 2.19,0.8 3.19,1.24c1,0.44 3.19,0.59 4.25,-0.99c1.05,-1.58 -0.6,-2.27 -1.92,-1.18c-1.33,1.09 -4.57,0.56 -5.84,-0.98c-1.27,-1.55 0.16,-1.37 0.95,-1.05c1.99,0.82 4.46,0.67 6.6,-1.1c0.97,-0.8 0.82,-1.3 0.49,-1.84c-0.19,-0.31 -0.84,-0.32 -1.68,0.29c-2.84,2.05 -5.11,1.92 -6.81,-0.26c-0.68,-0.87 0.16,-1.02 0.95,-0.72c3.31,1.25 6.71,-0.11 7.71,-2.6c0.47,-1.17 -0.6,-2.32 -1.68,-0.8c-1.4,1.97 -3.65,2.25 -5.95,2.17c-1.1,-0.04 -1.11,-1.44 0.06,-1.71c2.51,-0.59 6.49,-2.66 7.68,-4.82c0.99,-1.79 -1,-3.55 -2.05,-1.44c-1.05,2.12 -3.27,3.65 -5.71,4.67c-0.86,0.36 -1.16,0.37 -1.19,0.1c-0.04,-0.38 -0.32,-1.02 -0.6,-0.8c-0.68,0.45 -3.11,1.55 -4.3,2.11c-1.19,0.56 -1.73,1.7 -1.68,2.7c0.05,1 0.33,2.73 -1.43,2.92c-2.81,0.3 -1.64,-4.38 0.03,-5.93c1.28,-1.2 2.68,-1.86 3.73,-1.94c1.05,-0.08 2.31,-0.65 2.43,-1.62c0.26,-0.08 0.74,-0.25 1.24,-0.31c0.38,-0.04 1.1,-0.51 1.45,-0.86c0.35,-0.35 0.77,-0.89 0.42,-1.15c-0.35,-0.26 -0.91,0.3 -1.12,0.74c-0.22,0.44 -0.68,0.79 -0.92,0.84c-0.35,0.08 -0.95,0.24 -1.28,0.35c-0.32,0.11 -0.85,0.09 -0.99,-0.06c-0.27,-0.29 0.03,-0.51 0.39,-0.68c0.41,-0.19 0.84,-0.19 0.97,0.06c0.09,0.17 0.25,0.32 0.54,0.32c0.33,-1.85 -1.43,-1.58 -2.89,-1.35c-0.87,-1.29 -3.11,-0.11 -4.65,0.79c-0.73,0.24 -1.97,0.29 -2.6,0.08c-0.62,-0.21 -0.59,0.12 -0.38,0.39c0.22,0.27 1,0.73 1.33,0.78c0.32,0.05 0.22,0.22 0.11,0.37c-0.34,0.46 -1.11,0.96 -1.46,1.05c-0.35,0.09 -0.46,0.26 -0.27,0.38c0.19,0.12 0.46,0.25 0.73,0.3c0.27,0.05 0.24,0.16 0.08,0.4c-0.33,0.48 -1.22,1.02 -1.51,1c-0.3,-0.02 -0.32,0.14 -0.22,0.27c0.11,0.12 0.51,0.27 0.73,0.25c0.22,-0.02 0.23,0.02 0.06,0.26c-0.2,0.27 -0.64,0.86 -1.03,0.79c-0.53,-0.1 -0.66,0.05 -0.5,0.25c0.38,0.49 0.36,0.72 -0.4,0.92c-0.76,-0.05 -0.78,-0.27 -0.4,-0.84c0.16,-0.24 0.03,-0.36 -0.5,-0.15c-0.39,0.15 -0.83,-0.34 -1.03,-0.57c-0.18,-0.21 -0.16,-0.25 0.05,-0.28c0.22,-0.02 0.62,-0.25 0.73,-0.4c0.11,-0.15 0.08,-0.31 -0.22,-0.22c-0.3,0.09 -1.18,-0.27 -1.52,-0.68c-0.16,-0.2 -0.19,-0.31 0.08,-0.41c0.27,-0.11 0.54,-0.3 0.73,-0.46c0.19,-0.15 0.08,-0.31 -0.27,-0.32c-0.35,-0.02 -1.12,-0.35 -1.46,-0.74c-0.11,-0.12 -0.22,-0.27 0.11,-0.39c0.32,-0.12 1.11,-0.74 1.33,-1.06c0.22,-0.32 0.24,-0.65 -0.38,-0.31c-0.62,0.34 -1.87,0.55 -2.6,0.46c-1.54,-0.57 -3.79,-1.28 -4.65,0.19c-1.46,0.07 -3.22,0.18 -2.89,1.96c0.29,-0.06 0.45,-0.24 0.54,-0.44c0.13,-0.28 0.56,-0.37 0.97,-0.26c0.36,0.09 0.65,0.25 0.39,0.6c-0.14,0.18 -0.66,0.31 -0.99,0.27c-0.32,-0.05 -0.93,-0.08 -1.28,-0.08c-0.24,-0 -0.7,-0.25 -0.92,-0.65c-0.22,-0.4 -0.77,-0.84 -1.12,-0.5c-0.35,0.34 0.07,0.79 0.42,1.07c0.35,0.28 1.07,0.59 1.45,0.55c0.5,-0.05 0.99,0.02 1.24,0.04c0.12,0.94 1.38,1.24 2.43,1.11c1.05,-0.14 2.45,0.23 3.73,1.16c1.66,1.2 2.84,5.63 0.03,5.93c-1.76,0.19 -1.49,-1.6 -1.43,-2.61c0.05,-1.01 -0.49,-2.04 -1.68,-2.34c-1.19,-0.31 -3.62,-0.89 -4.3,-1.2c-0.27,-0.16 -0.56,0.54 -0.59,0.93c-0.03,0.27 -0.33,0.33 -1.19,0.15c-2.43,-0.5 -4.65,-1.57 -5.71,-3.46c-1.06,-1.89 -3.04,0.29 -2.06,1.87c1.19,1.91 5.16,3.14 7.68,3.2c1.17,0.03 1.16,1.43 0.05,1.7c-2.3,0.57 -4.55,0.76 -5.95,-0.92c-1.08,-1.29 -2.15,0.08 -1.68,1.15c1,2.28 4.4,2.93 7.71,0.98c0.78,-0.46 1.62,-0.49 0.95,0.52c-1.7,2.54 -3.97,3.14 -6.82,1.7c-0.84,-0.43 -1.49,-0.28 -1.68,0.07c-0.33,0.61 -0.48,1.14 0.49,1.74c2.14,1.32 4.61,0.95 6.6,-0.29c0.78,-0.49 2.22,-0.97 0.95,0.85c-1.27,1.82 -4.52,3.03 -5.84,2.22c-1.33,-0.81 -2.98,0.23 -1.92,1.58c1.06,1.35 3.25,0.74 4.25,0.1c1,-0.65 2.54,-1.54 3.19,-1.91c0.65,-0.37 0.95,0.11 0.22,1.03c-1.65,2.07 -3.35,3.84 -5.65,3.33c-1.33,-0.29 -2.54,-0.22 -2.19,1.37c0.35,1.59 3.08,1.41 4.43,0.45c1.35,-0.95 2.57,-2 3.38,-2.88c0.81,-0.87 1.63,-0.93 0.73,0.49c-2.03,3.19 -3.76,5.56 -6.65,5.31c-2.68,-0.23 -2.01,1.31 -1.43,1.75c1.65,1.26 4.54,0.58 8.01,-4.04c0.27,-0.36 0.72,-0.31 0.49,0.33c-1.54,4.15 -4.11,6.99 -6.6,6.63c-1.29,-0.19 -2.56,0.67 -1.25,1.67c1.49,1.14 4.19,0.37 6.14,-2c1.95,-2.37 3.14,-4.04 3.57,-4.9c0.43,-0.86 1.08,-0.95 1,0.11c-0.08,1.06 -0.86,3.21 -2.25,4.03c-0.71,0.43 -1.35,1.28 0,1.73c1.35,0.45 2.95,-2.13 4.25,-5.79c0.15,-0.43 1.05,-0.63 1.03,0.16c-0.03,1.11 -0.57,2.09 -1.16,2.7c-0.6,0.6 -0.13,1.46 0.68,1.01c1.14,-0.63 1.85,-1.47 2.3,-2.65c0.24,-0.65 0.79,-0.92 0.49,0.08c-0.92,3.02 -2.97,4.65 -5.68,6.29c0.41,0.36 0.77,0.77 1.14,1.1c-1.66,1.03 -3.41,1.78 -4.79,2.5c-1.1,-0.62 -2.07,-0.92 -2.56,-1.56c-0.16,-0.92 -1.3,-1.2 -2.03,-0.72c-1.26,-0.36 -2.15,-0.14 -2.23,1.05c0.73,-0.2 1.34,-0.39 1.87,0.05c0.24,0.54 1.01,0.75 1.75,0.43c0.81,0.4 1.5,0.82 1.99,1.09c-1.54,0.12 -2.68,0.16 -3.49,0.17c-0.77,-0.69 -1.5,-0.61 -2.07,-0.03c-0.93,-0.11 -1.66,0.41 -1.91,1.24c0.7,-0.15 1.35,-0.47 1.81,-0.27c0.38,0.67 1.43,0.58 2.11,0c1.03,-0.14 3.03,-0.37 3.49,-0.42c-0.68,0.48 -1.49,1.05 -1.89,1.34c-1.6,-0.16 -2.46,0.56 -2.35,1.71c-0.38,0.64 -0.35,1.47 0.11,1.8c0.11,-0.5 0.38,-1.15 0.76,-1.54c0.97,0.09 1.68,-0.31 1.97,-1.43c0.62,-0.47 1.43,-1.07 1.76,-1.33c0.32,-0.25 0.58,-0.53 1.33,-0.28c0.73,0.25 1.41,0.45 1.84,0.65c0.24,0.92 1.16,0.88 1.76,0.38c0.38,0.18 0.7,0.52 0.92,0.91c0.35,-0.66 0.16,-1.48 -0.52,-1.62c-0.24,-0.71 -1.11,-0.86 -1.73,-0.44c-0.52,-0.16 -1.25,-0.44 -1.57,-0.54c1.05,-0.49 3.73,-1.78 4.68,-2.28c0.89,0.58 1.89,1.13 2.62,0.86c0.11,-0.66 0.44,-1.23 0.89,-2.21c0.72,-1.55 1.61,-3.03 2.34,-3.96c0.73,-0.93 1.47,-0.52 1.42,0.66c-0.12,2.86 -2.22,7.33 -5.3,7.82c-1.05,0.17 -1.47,0.43 -0.89,1.15c0.54,0.67 2.22,0.59 3.15,-0.2c0.93,-0.79 1.26,-0.78 1.07,0.16c-0.19,0.94 -1.24,1.4 -2.03,1.54c-1.14,0.2 -2.43,0.75 -1.38,1.61c1.05,0.86 2.79,0.14 4.06,-1.46c0.44,-0.55 0.79,-0.74 0.76,0.08c-0.05,1.42 -0.89,2.4 -1.76,2.68c-0.87,0.28 -1.73,0.6 -1.49,1.08c0.41,0.8 1.76,0.79 2.51,0.3c0.76,-0.49 1.57,-1.33 1.73,-1.81c0.16,-0.48 0.49,-0.25 0.41,0.39c-0.19,1.37 -1.14,1.45 -1.14,2.56c0,1.11 0.92,2.1 2,3.2c1.08,-1.33 2,-2.52 2,-3.63c0,-1.11 -0.95,-0.98 -1.14,-2.32c-0.09,-0.62 0.24,-0.92 0.41,-0.48c0.16,0.44 0.97,1.12 1.73,1.44c0.76,0.32 2.11,0.05 2.52,-0.84c0.24,-0.53 -0.62,-0.67 -1.49,-0.76c-0.87,-0.1 -1.71,-0.9 -1.76,-2.31c-0.03,-0.81 0.32,-0.7 0.76,-0.24c1.27,1.33 3,1.69 4.06,0.6c1.06,-1.09 -0.24,-1.36 -1.38,-1.32c-0.78,0.03 -1.84,-0.21 -2.03,-1.11c-0.19,-0.9 0.14,-0.98 1.07,-0.38c0.93,0.59 2.61,0.32 3.15,-0.47c0.58,-0.85 0.16,-1.02 -0.89,-0.96c-3.08,0.16 -5.18,-3.87 -5.3,-6.7c-0.05,-1.17 0.69,-1.74 1.42,-0.96c0.73,0.78 1.62,2.06 2.34,3.47c0.45,0.88 0.79,1.38 0.9,2.02c0.73,0.11 1.73,-0.64 2.62,-1.41c0.95,0.31 3.62,1.03 4.68,1.29c-0.33,0.17 -1.05,0.6 -1.57,0.87c-0.62,-0.29 -1.49,0.05 -1.73,0.81c-0.68,0.29 -0.87,1.15 -0.51,1.73c0.22,-0.43 0.54,-0.84 0.92,-1.1c0.6,0.37 1.52,0.22 1.76,-0.76c0.43,-0.29 1.11,-0.63 1.84,-1.03c0.74,-0.41 1,-0.19 1.32,-0c0.32,0.18 1.14,0.61 1.76,0.95c0.3,1.05 1,1.3 1.97,1.01c0.38,0.31 0.65,0.91 0.76,1.38c0.46,-0.43 0.49,-1.27 0.11,-1.83c0.11,-1.18 -0.76,-1.71 -2.35,-1.22c-0.4,-0.2 -1.22,-0.6 -1.89,-0.94c0.46,-0.05 2.46,-0.23 3.49,-0.31c0.68,0.44 1.73,0.3 2.11,-0.44c0.46,-0.29 1.11,-0.12 1.81,-0.11c-0.24,-0.79 -0.97,-1.14 -1.91,-0.84l-0.05,-0.01Zm-14.37,-33.15c0.45,-0.27 0.95,-0.4 1.33,-0.28c0.38,0.12 0.46,0.49 0.03,0.67c-0.43,0.18 -1,0.24 -1.3,0.19c-0.3,-0.05 -0.43,-0.36 -0.06,-0.59l0,0.01Zm-14.39,2.11c-0.3,0.11 -0.87,0.17 -1.3,0.08c-0.43,-0.09 -0.35,-0.48 0.03,-0.68c0.38,-0.2 0.88,-0.18 1.33,-0c0.38,0.15 0.24,0.49 -0.06,0.6Z" style="fill:rgb(34,0,0);fill-rule:nonzero;"/>
    <path d="M 95.36 0 C 81.94 0 66.07 9.91 56.47 26.38 C 53.88 20.43 44.64 13.95 33.67 13.95 C 24.83 13.95 0 25 0 60.68 C 0 106.73 46.59 116.19 56.01 130.5 C 56.66 131.49 58.74 132.23 59.54 129.88 C 67.05 107.7 125.33 82.64 125.33 37.51 C 125.33 12.2 108.8 0 95.38 0 L 95.36 0 Z M 109.69 37.36 C 109.68 37.72 109.65 38.08 109.63 38.43 C 108.71 53.87 99.51 67.95 88.96 80.39 C 75.48 96.28 59.81 109.51 56.45 119.49 C 52.87 112.25 34.58 102.88 22.81 87.34 C 16.86 79.49 12.58 70.07 12.71 58.55 C 12.75 54.89 13.03 51.57 13.51 48.53 C 16.73 27.9 28.9 21.11 35.95 21.11 C 47.23 21.11 51.89 29.72 52.66 33.54 C 53.42 37.35 57.69 40.4 59.06 34.15 C 60.43 27.9 73.71 8.84 90.02 8.84 C 104.96 8.84 110.14 24.25 109.69 37.36 Z" id="path4" style="fill:currentColor"/>
</svg>
