<?xml version="1.0" encoding="utf-8"?>
<svg id="LOGO_LAYER" viewBox="0 0 125.32031 131.44201" version="1.1" width="125.32031" height="131.44202" xmlns="http://www.w3.org/2000/svg">
  <g id="LOGO_GROUP" transform="translate(-232.75687,-97.8772)">
    <g id="SELECT_FLAG_HERE">
      <g id="AZERBAIJAN">
        <path d="M 244.13 144.892 C 243.694 147.816 246.151 178.828 251.792 186.521 L 325.874 177.822 C 336.004 165.72 342.634 149.049 343.66 134.144 L 244.13 144.892 Z" fill="#ef3340" id="path3"/>
        <path d="M 322.788 103.834 C 306.48 103.397 292.237 124.818 290.863 131.069 C 289.491 137.32 287.464 134.593 286.703 130.782 C 285.941 126.967 278.075 117.712 266.791 117.712 C 259.701 117.712 249.334 125.869 246.214 146.816 L 342.378 136.709 C 355.711 135.902 342.793 104.37 322.788 103.834 Z" fill="#00b5e2" id="path1"/>
        <path d="M 289.221 221.537 C 324.075 191.153 316.054 189.023 322.508 177.341 L 254.998 184.437 C 226.682 188.49 274.022 204.912 289.221 221.537 Z" fill="#509e2f" id="path2"/>
        <path d="m 289.60611,178.81183 c 5.63007,-0.59173 10.61646,-3.8183 13.77436,-8.31549 -2.58582,2.73554 -6.07764,4.62421 -9.93128,5.02924 -7.95929,0.83654 -14.4115,-4.9375 -14.4115,-12.89679 0,-7.95929 6.45221,-15.08972 14.4115,-15.92627 3.85358,-0.40503 7.34534,0.74951 9.93109,2.94146 -3.15783,-3.83325 -8.14416,-6.01159 -13.77417,-5.41986 -9.55108,1.00385 -17.29382,9.56037 -17.29382,19.11152 0,9.55114 7.74274,16.48004 17.29382,15.47619 z" fill="#f9f9f9" id="path4"/>
        <polygon points="299.21384,160.50818 304.38333,161.80316 302.02793,167.00598 306.98319,164.12976 307.06882,164.36164 308.82151,169.10608 310.65982,163.74335 315.61515,165.57794 313.25968,160.87024 318.42923,158.48853 313.25974,157.19355 315.61515,151.99073 310.65988,154.86695 308.82151,149.89069 307.06882,155.00354 306.98319,155.25342 302.02793,153.41883 304.38333,158.12653 " fill="#f9f9f9" id="polygon5"/>
      </g>
    </g>
    <g id="CHANGE_GROUP_FILL_COLOUR">
      <path id="HEART_SHAPE" d="m 328.12497,97.8772 c -13.41791,0 -29.28711,9.91016 -38.8916,26.37885 -2.59277,-5.9477 -11.82617,-12.42865 -22.80365,-12.42865 -8.84473,0 -33.67285,11.05468 -33.67285,46.73486 0,46.04834 46.58832,55.50629 56.00635,69.81689 0.64697,0.98529 2.73187,1.72852 3.52685,-0.62408 7.51465,-22.17871 65.78711,-47.23627 65.78711,-92.36908 0,-25.31104 -16.53418,-37.50879 -29.95221,-37.50879 z m 14.33209,37.35699 c -1.22168,35.67817 -47.18554,64.15375 -53.23638,82.1352 -5.38666,-10.8916 -44.12061,-26.63281 -43.74067,-60.9419 0.31787,-28.50982 15.15528,-37.4331 23.23487,-37.4331 11.28375,0 15.94433,8.61377 16.70599,12.42816 0.76135,3.81164 5.03223,6.85944 6.4043,0.6084 1.37311,-6.25086 14.6485,-25.31201 30.96295,-25.31201 14.94238,0 20.11719,15.40875 19.66894,28.51525 z"  style="fill:currentColor"/>
    </g>
  </g>
</svg>