<?xml version="1.0" encoding="UTF-8" standalone="no"?>
<svg width="100%" height="100%" viewBox="0 0 126 132" version="1.1" xmlns="http://www.w3.org/2000/svg" xmlns:xlink="http://www.w3.org/1999/xlink" xml:space="preserve">
  <defs/>
  <g
     id="LOGO_GROUP"
     transform="translate(-232.76,-97.88)">
    <g
       id="SELECT_FLAG_HERE">
      <g
         id="BLACK_FLAG">
        <path
           style="fill:#f9f9f9"
           d="m 322.79,106.72 c -13.32,0 -24.61,12.7 -29.06,20.77 v 22.35 l 47.32,-4.97 c 0.8,-3.15 1.29,-6.36 1.4,-9.63 0.45,-13.11 -4.73,-28.52 -19.67,-28.52 z"
           id="path1" />
        <path
           style="fill:#f9f9f9"
           d="m 270.98,119.13 c -0.73,-0.08 -1.48,-0.13 -2.27,-0.13 -7.93,0 -22.37,8.62 -23.19,35.91 l 25.46,-2.68 z"
           id="path2" />
        <path
           style="fill:#f9f9f9"
           d="m 293.73,209.41 c 8.07,-10.91 23.93,-24.58 35.38,-40.53 l -35.38,3.72 v 36.82 z"
           id="path3" />
        <path
           style="fill:#f9f9f9"
           d="m 250.45,177.14 c 5,9.71 13.02,17.36 20.53,23.62 v -25.77 l -20.53,2.16 z"
           id="path4" />
        <path
           style="fill:#003580"
           d="m 293.73,127.49 c -1,1.81 -1.66,3.39 -1.91,4.54 -1.37,6.25 -5.64,3.2 -6.4,-0.61 -0.71,-3.55 -4.8,-11.24 -14.44,-12.3 v 33.1 l -25.46,2.68 c -0.02,0.51 -0.04,1 -0.04,1.52 -0.09,7.81 1.86,14.66 4.97,20.71 l 20.53,-2.16 v 25.77 c 8.35,6.95 16.05,12.18 18.24,16.61 0.83,-2.46 2.41,-5.12 4.51,-7.96 v -36.82 l 35.38,-3.72 c 5.39,-7.51 9.79,-15.53 11.95,-24.01 l -47.32,4.97 v -22.35 z"
           id="path5" />
        <path
           d="m 328.12,97.88 c -13.42,0 -29.29,9.91 -38.89,26.38 -2.59,-5.95 -11.83,-12.43 -22.8,-12.43 -8.84,0 -33.67,11.05 -33.67,46.73 0,46.05 46.59,55.51 56.01,69.82 0.65,0.99 2.73,1.73 3.53,-0.62 7.51,-22.18 65.79,-47.24 65.79,-92.37 0,-25.31 -16.53,-37.51 -29.95,-37.51 z m 14.33,37.36 c -0.11,3.27 -0.6,6.48 -1.4,9.63 -2.15,8.48 -6.56,16.49 -11.95,24.01 -11.44,15.96 -27.3,29.63 -35.38,40.53 -2.11,2.84 -3.68,5.5 -4.51,7.96 -2.19,-4.43 -9.89,-9.66 -18.24,-16.61 -7.5,-6.25 -15.52,-13.9 -20.53,-23.62 -3.12,-6.05 -5.06,-12.9 -4.97,-20.71 0,-0.52 0.03,-1.02 0.04,-1.52 0.82,-27.3 15.26,-35.91 23.19,-35.91 0.79,0 1.54,0.05 2.27,0.13 9.64,1.06 13.73,8.75 14.44,12.3 0.76,3.81 5.03,6.86 6.4,0.61 0.25,-1.15 0.91,-2.73 1.91,-4.54 4.44,-8.07 15.74,-20.77 29.06,-20.77 14.94,0 20.12,15.41 19.67,28.52 z"
           id="path6"  style="fill:currentColor"/>
      </g>
    </g>
  </g>
</svg>
