<?xml version="1.0" encoding="utf-8"?>
<svg width="100%" height="100%" viewBox="0 0 126 132" version="1.1" xmlns="http://www.w3.org/2000/svg" xmlns:xlink="http://www.w3.org/1999/xlink" xml:space="preserve">  <defs id="defs1">
    <style id="style1">.cls-1{fill:#f9f9f9;}.cls-2{fill:#000582;}.cls-3{fill:#db0e19;}</style>
  </defs>
  <path style="fill:#db0e19" d="M 91.91 7.321 C 87.723 7.143 80.773 8.561 77.133 10.541 L 77.594 94.763 C 92.074 79.403 90.871 81.527 103.781 64.899 C 115.494 49.813 115.656 8.331 91.91 7.321 Z" id="path1" style="fill: rgb(206, 17, 38);"/>
  <path style="fill:#000582" d="M 41.079 18.225 C 32.999 18.225 13.466 22.656 9.193 50.846 C 6.428 69.085 15.658 89.585 43.648 108.415 L 44.263 22.118 C 42.203 21.218 43.959 18.225 41.079 18.225 Z" id="path3" style="fill: rgb(0, 43, 127);"/>
  <path style="fill:#f9f9f9" d="M 56.146 33.38 C 55.307 34.812 55.431 34.887 54.517 33.54 C 52.891 31.142 49.37 24.2 43.35 21.58 L 43.35 108.03 C 49.56 112.99 55.048 119.992 56.778 123.492 C 59.258 116.122 68.15 103.98 78.21 93.3 L 78.21 11.08 C 67.68 16.8 58.547 29.281 56.146 33.38 Z" id="path2" style="fill: rgb(252, 209, 22);"/>
  <path d="M 95.36 0 C 81.94 0 66.07 9.91 56.47 26.38 C 53.88 20.43 44.64 13.95 33.67 13.95 C 24.83 13.95 0 25 0 60.68 C 0 106.73 46.59 116.19 56.01 130.5 C 56.66 131.49 58.74 132.23 59.54 129.88 C 67.05 107.7 125.33 82.64 125.33 37.51 C 125.33 12.2 108.8 0 95.38 0 L 95.36 0 Z M 109.69 37.36 C 108.97 58.41 92.68 76.95 78.2 92.3 C 68.13 102.98 58.94 112.12 56.46 119.49 C 54.73 115.99 49.55 111.99 43.34 107.03 C 30.22 96.56 12.46 81.83 12.72 58.54 C 13.04 30.03 27.88 21.11 35.95 21.11 C 38.83 21.11 41.28 21.68 43.34 22.58 C 49.36 25.2 52.09 30.7 52.66 33.54 C 53.42 37.35 57.69 40.4 59.06 34.15 C 60.08 29.51 67.67 17.8 78.2 12.08 C 81.84 10.1 85.83 8.84 90.02 8.84 C 104.96 8.84 110.14 24.25 109.69 37.36 L 109.69 37.36 Z" id="path4" style="fill:currentColor"/>
</svg>