<?xml version="1.0" encoding="UTF-8" standalone="no"?>
<svg width="100%" height="100%" viewBox="0 0 126 132" version="1.1" xmlns="http://www.w3.org/2000/svg" xmlns:xlink="http://www.w3.org/1999/xlink" xml:space="preserve">
  <defs/>
  <g
     id="LOGO_GROUP"
     transform="translate(-232.76,-97.88)">
    <g
       id="SELECT_FLAG_HERE">
      <g
         id="BLACK_FLAG">
        <path
           style="fill:#0057b7"
           d="m 322.79,106.72 c -16.31,0 -29.59,19.06 -30.96,25.31 -1.37,6.25 -5.64,3.2 -6.4,-0.61 -0.76,-3.81 -5.42,-12.43 -16.71,-12.43 -8.08,0 -22.92,8.92 -23.23,37.43 -0.04,3.72 0.38,7.23 1.17,10.53 l 89.5,-9.44 c 3.64,-7.06 6.04,-14.5 6.31,-22.28 0.45,-13.11 -4.73,-28.52 -19.67,-28.52 z"
           id="path1" style="fill:#005BBB"/>
        <path
           style="fill:gold"
           d="m 289.22,217.37 c 4.73,-14.06 33.86,-34.54 46.93,-59.85 l -89.5,9.44 c 6.47,27.14 37.77,40.7 42.57,50.41 z"
           id="path2" style="fill:#FFD500"/>
        <path
           d="m 328.12,97.88 c -13.42,0 -29.29,9.91 -38.89,26.38 -2.59,-5.95 -11.83,-12.43 -22.8,-12.43 -8.84,0 -33.67,11.05 -33.67,46.73 0,46.05 46.59,55.51 56.01,69.82 0.65,0.99 2.73,1.73 3.53,-0.62 7.51,-22.18 65.79,-47.24 65.79,-92.37 0,-25.31 -16.53,-37.51 -29.95,-37.51 z m 14.33,37.36 c -0.27,7.78 -2.66,15.22 -6.31,22.28 -13.07,25.32 -42.2,45.79 -46.93,59.85 -4.8,-9.71 -36.11,-23.27 -42.57,-50.41 -0.79,-3.3 -1.21,-6.81 -1.17,-10.53 0.32,-28.51 15.16,-37.43 23.23,-37.43 11.28,0 15.94,8.61 16.71,12.43 0.76,3.81 5.03,6.86 6.4,0.61 1.37,-6.25 14.65,-25.31 30.96,-25.31 14.94,0 20.12,15.41 19.67,28.52 z"
           id="path3" style="fill:currentColor"/>
      </g>
    </g>
  </g>
</svg>
