<?xml version="1.0" encoding="UTF-8" standalone="no"?>
<!DOCTYPE svg PUBLIC "-//W3C//DTD SVG 1.1//EN" "http://www.w3.org/Graphics/SVG/1.1/DTD/svg11.dtd">
<svg width="100%" height="100%" viewBox="0 0 126 132" version="1.1" xmlns="http://www.w3.org/2000/svg" xmlns:xlink="http://www.w3.org/1999/xlink" xml:space="preserve">
  <g
     transform="translate(-232.76,-97.88)">
    <path
       class="cls-2"
       d="m 258.04,188.27 c 11.71,13.74 27.85,22.35 31.18,29.1 4.81,-14.3 34.85,-35.23 47.58,-61.14 l -43.12,4.53 z"
       id="path1" fill="#d7141a" />
    <path
       class="cls-1"
       d="m 322.79,106.72 c -16.31,0 -29.59,19.06 -30.96,25.31 -1.37,6.25 -5.64,3.2 -6.4,-0.61 -0.76,-3.81 -5.42,-12.43 -16.71,-12.43 -5.65,0 -14.6,4.38 -19.58,16.75 l 44.55,25.02 v 0 c 0,0 43.12,-4.53 43.12,-4.53 3.28,-6.68 5.41,-13.68 5.66,-20.99 0.45,-13.11 -4.73,-28.52 -19.67,-28.52 z"
       id="path2" fill="#f9f9f9" />
    <path
       class="cls-3"
       d="m 293.68,160.76 -44.55,-25.02 c -2.14,5.32 -3.56,12.11 -3.65,20.68 -0.14,13.05 5.37,23.41 12.56,31.84 l 35.64,-27.51 v 0 z"
       id="path3" fill="#11457e" />
  </g>
</svg>
