<?xml version="1.0" encoding="UTF-8" standalone="no"?>
<!DOCTYPE svg PUBLIC "-//W3C//DTD SVG 1.1//EN" "http://www.w3.org/Graphics/SVG/1.1/DTD/svg11.dtd">
<svg width="100%" height="100%" viewBox="0 0 126 132" version="1.1" xmlns="http://www.w3.org/2000/svg" xmlns:xlink="http://www.w3.org/1999/xlink" xml:space="preserve" xmlns:serif="http://www.serif.com/" style="fill-rule:evenodd;clip-rule:evenodd;stroke-linejoin:round;stroke-miterlimit:2;">
	<style>
		path#heart { fill: black; }
		@media (prefers-color-scheme: dark) {
			path#heart { fill: white; }
		}
	</style>
    <g id="Canvas_1">
        <path id="heart" d="M95.36,0c-13.42,0 -29.29,9.91 -38.89,26.38c-2.59,-5.95 -11.83,-12.43 -22.8,-12.43c-8.84,0 -33.67,11.05 -33.67,46.73c0,46.05 46.59,55.51 56.01,69.82c0.65,0.99 2.73,1.73 3.53,-0.62c7.51,-22.18 65.79,-47.24 65.79,-92.37c-0,-25.31 -16.53,-37.51 -29.95,-37.51l-0.02,0Zm14.33,37.36c-1.22,35.68 -47.19,64.15 -53.24,82.14c-5.39,-10.89 -44.12,-26.63 -43.74,-60.94c0.32,-28.51 15.16,-37.43 23.23,-37.43c11.28,-0 15.94,8.61 16.71,12.43c0.76,3.81 5.03,6.86 6.4,0.61c1.37,-6.25 14.65,-25.31 30.96,-25.31c14.94,0 20.12,15.41 19.67,28.52l0.01,-0.02Z" fill="currentColor"/>
    </g>
</svg>
