<?xml version="1.0" encoding="UTF-8" standalone="no"?>
<!DOCTYPE svg PUBLIC "-//W3C//DTD SVG 1.1//EN" "http://www.w3.org/Graphics/SVG/1.1/DTD/svg11.dtd">
<svg version="1.1" xmlns:dc="http://purl.org/dc/elements/1.1/" xmlns:xl="http://www.w3.org/1999/xlink" xmlns="http://www.w3.org/2000/svg" viewBox="0 0 1200 630" width="1200" height="630">
  <defs/>
  <g id="cms" fill="none" stroke="none" stroke-dasharray="none" fill-opacity="1" stroke-opacity="1">
    <title>cms</title>
    <g id="cms_Layer_1">
      <title>Layer 1</title>
      <g id="Graphic_113">
        <path d="M 45 135 L 45 495 L 405 495 L 405 135 Z M 104.1636 426.4908 L 104.1636 426.4908 C 104.1636 432.37363 105.31257 436.50995 107.61056 438.89985 C 109.90855 441.28976 113.41675 442.4847 118.13529 442.4847 C 122.79254 442.4847 126.28543 441.28976 128.61406 438.89985 C 130.94268 436.50995 132.10698 432.37363 132.10698 426.4908 L 132.10698 377.03835 L 91.29493 377.03835 L 91.29493 357 L 155.45441 357 L 155.45441 425.93927 C 155.45441 432.1898 154.73439 437.38317 153.29432 441.51955 C 151.85424 445.6559 149.75545 449.10285 146.99786 451.86044 C 143.32108 455.5372 139.03157 458.04964 134.1292 459.3978 C 129.22683 460.74595 123.89557 461.42 118.13529 461.42 C 112.31372 461.42 107.12035 460.76127 102.55501 459.44376 C 97.98968 458.12624 94.09848 456.0734 90.8813 453.2852 C 87.66411 450.49696 85.21296 446.91215 83.52777 442.53065 C 81.84258 438.14916 81 432.86387 81 426.6746 L 81 417.2989 L 104.1636 417.2989 L 104.1636 426.4908 Z M 199.26302 357 L 199.26302 357 C 206.49402 357 212.97425 357.6894 218.7039 359.06818 C 224.43354 360.44697 229.3052 362.5611 233.31902 365.4106 C 237.33284 368.2601 240.4121 371.87554 242.55688 376.25704 C 244.70167 380.63853 245.77405 385.80127 245.77405 391.7454 C 245.77405 397.7508 244.70167 402.92885 242.55688 407.2797 C 240.4121 411.63056 237.33284 415.2307 233.31902 418.0802 C 229.3052 420.9297 224.43354 423.0438 218.7039 424.4226 C 212.97425 425.8014 206.49402 426.4908 199.26302 426.4908 L 186.76203 426.4908 L 186.76203 459.58163 L 163.4146 459.58163 L 163.4146 357 Z M 199.07918 407.37163 C 203.12364 407.37163 206.57057 407.08055 209.42007 406.4984 C 212.26958 405.91624 214.58285 404.99706 216.35996 403.74083 C 218.13707 402.4846 219.43924 400.87603 220.26652 398.9151 C 221.0938 396.95413 221.50743 394.56426 221.50743 391.7454 C 221.50743 386.23022 219.79162 382.2471 216.35996 379.7959 C 212.9283 377.34473 207.1681 376.11916 199.07918 376.11916 L 186.76203 376.11916 L 186.76203 407.37163 Z" fill="black"/>
      </g>
      <g id="Group_138">
        <title>Content
Management
System</title>
        <g id="Graphic_115">
          <path d="M 518.46346 183.95858 C 518.1144 188.45301 517.05624 192.42377 515.289 195.87096 C 513.5218 199.31815 511.19823 202.21985 508.3183 204.57616 C 505.4384 206.93246 502.0785 208.71058 498.2386 209.91055 C 494.3987 211.11052 490.2316 211.7105 485.73714 211.7105 C 480.1518 211.7105 475.232 210.80508 470.97757 208.9942 C 466.72313 207.18335 463.1669 204.63072 460.3088 201.33625 C 457.4507 198.04179 455.30167 194.07103 453.8617 189.42387 C 452.42174 184.7767 451.70177 179.5951 451.70177 173.87887 C 451.70177 168.20628 452.42174 163.03557 453.8617 158.3666 C 455.30167 153.69761 457.4507 149.71595 460.3088 146.42149 C 463.1669 143.12702 466.72313 140.5744 470.97757 138.76353 C 475.232 136.95266 480.1518 136.04724 485.73714 136.04724 C 490.2316 136.04724 494.3987 136.64722 498.2386 137.84719 C 502.0785 139.04716 505.4384 140.82527 508.3183 143.18158 C 511.19823 145.53789 513.5218 148.4396 515.289 151.88678 C 517.05624 155.33397 518.1144 159.30473 518.46346 163.79916 L 501.5767 163.79916 C 501.4458 162.01011 501.03125 160.30836 500.3331 158.69386 C 499.6349 157.07935 498.6313 155.66122 497.32226 154.43943 C 496.0132 153.21765 494.42054 152.24677 492.5442 151.5268 C 490.6679 150.80681 488.48617 150.44682 485.99895 150.44682 C 482.55176 150.44682 479.7264 151.12316 477.52284 152.47586 C 475.31925 153.82855 473.57387 155.61757 472.2866 157.84297 C 470.9994 160.06837 470.1049 162.57737 469.60307 165.37003 C 469.10126 168.16269 468.85036 170.99894 468.85036 173.87887 C 468.85036 176.7588 469.10126 179.59505 469.60307 182.38771 C 470.1049 185.18037 470.9994 187.68937 472.2866 189.91477 C 473.57387 192.14017 475.31925 193.92919 477.52284 195.28188 C 479.7264 196.63458 482.55176 197.31091 485.99895 197.31091 C 488.48617 197.31091 490.6679 196.95093 492.5442 196.23095 C 494.42054 195.51096 496.0132 194.5401 497.32226 193.3183 C 498.6313 192.09651 499.6349 190.67839 500.3331 189.06388 C 501.03125 187.44938 501.4458 185.74762 501.5767 183.95858 Z" fill="black"/>
        </g>
        <g id="Graphic_116">
          <path d="M 558.2587 198.48906 C 562.4913 198.48906 565.6875 197.0382 567.8475 194.13646 C 570.0074 191.23471 571.0874 186.9258 571.0874 181.20956 C 571.0874 175.40607 570.0074 171.09715 567.8475 168.28267 C 565.6875 165.4682 562.4913 164.06097 558.2587 164.06097 C 554.02604 164.06097 550.8298 165.4682 548.66986 168.28267 C 546.5099 171.09715 545.42995 175.40607 545.42995 181.20956 C 545.42995 186.9258 546.5099 191.23471 548.66986 194.13646 C 550.8298 197.0382 554.02604 198.48906 558.2587 198.48906 Z M 558.2587 211.7105 C 554.8115 211.7105 551.3534 211.23051 547.8844 210.27054 C 544.4154 209.31056 541.2737 207.66335 538.45924 205.32886 C 535.64477 202.99437 533.35395 199.8745 531.5867 195.96914 C 529.8195 192.06377 528.9359 187.14397 528.9359 181.20956 C 528.9359 175.27516 529.8195 170.35535 531.5867 166.45 C 533.35395 162.54463 535.64477 159.43566 538.45924 157.123 C 541.2737 154.81032 544.4154 153.18493 547.8844 152.24677 C 551.3534 151.30861 554.8115 150.83954 558.2587 150.83954 C 561.70586 150.83954 565.1639 151.30861 568.6329 152.24677 C 572.1019 153.18493 575.2436 154.81032 578.0581 157.123 C 580.8726 159.43566 583.1634 162.54463 584.9306 166.45 C 586.69785 170.35535 587.58145 175.27516 587.58145 181.20956 C 587.58145 187.14397 586.69785 192.06377 584.9306 195.96914 C 583.1634 199.8745 580.8726 202.99437 578.0581 205.32886 C 575.2436 207.66335 572.1019 209.31056 568.6329 210.27054 C 565.1639 211.23051 561.70586 211.7105 558.2587 211.7105 Z" fill="black"/>
        </g>
        <g id="Graphic_117">
          <path d="M 615.07156 159.7411 C 615.857 158.51931 616.81696 157.3739 617.9515 156.30483 C 619.086 155.23577 620.4387 154.29762 622.00954 153.49037 C 623.5804 152.68312 625.3585 152.0395 627.3439 151.55952 C 629.32934 151.07953 631.5656 150.83954 634.0528 150.83954 C 636.4528 150.83954 638.8527 151.15589 641.2526 151.7886 C 643.65256 152.42131 645.8016 153.59945 647.6997 155.32305 C 649.59784 157.04664 651.13596 159.43564 652.3141 162.4901 C 653.4923 165.54458 654.0813 169.51534 654.0813 174.4025 L 654.0813 210.40144 L 637.8491 210.40144 L 637.8491 177.2824 C 637.8491 175.23155 637.7073 173.4207 637.42364 171.84984 C 637.14 170.27897 636.6273 168.96993 635.8855 167.92268 C 635.1437 166.87543 634.1401 166.0791 632.8747 165.53366 C 631.60926 164.98822 629.9948 164.7155 628.0312 164.7155 C 625.28216 164.7155 622.99134 165.17366 621.15866 166.09 C 619.326 167.00635 617.90785 167.98813 616.9042 169.03537 L 616.9042 210.40144 L 600.672 210.40144 L 600.672 152.1486 L 615.07156 152.1486 Z" fill="black"/>
        </g>
        <g id="Graphic_118">
          <path d="M 667.4337 152.1486 C 669.87725 152.1486 671.579 151.6468 672.539 150.64318 C 673.49896 149.63957 673.9789 147.95963 673.9789 145.60333 L 673.9789 135 L 686.80766 135 L 686.80766 152.1486 L 703.95625 152.1486 L 703.95625 164.19188 L 686.80766 164.19188 L 686.80766 189.98022 C 686.80766 191.42018 686.92765 192.6856 687.16765 193.77647 C 687.4076 194.86735 687.844 195.78368 688.4767 196.52548 C 689.1094 197.26728 689.9712 197.82363 691.0621 198.19453 C 692.153 198.56543 693.52745 198.75087 695.1856 198.75087 C 696.6256 198.75087 698.0764 198.61997 699.5382 198.35816 C 701 198.09634 702.1672 197.7909 703.0399 197.44182 L 703.0399 209.74692 C 702.5599 209.9651 701.9054 210.19417 701.0763 210.43417 C 700.2473 210.67416 699.3091 210.89234 698.2619 211.0887 C 697.2146 211.28505 696.0692 211.43778 694.8256 211.54686 C 693.582 211.65595 692.3057 211.7105 690.9966 211.7105 C 687.1131 211.7105 683.8623 211.2196 681.2442 210.2378 C 678.6261 209.25602 676.5316 207.88153 674.9607 206.1143 C 673.38986 204.34706 672.2663 202.2417 671.5899 199.79811 C 670.9136 197.35454 670.5754 194.69282 670.5754 191.8129 L 670.5754 164.19188 L 662.1975 164.19188 L 662.1975 152.1486 Z" fill="black"/>
        </g>
        <g id="Graphic_119">
          <path d="M 751.7367 174.7952 C 751.2567 170.69349 750.0022 167.63906 747.97315 165.63184 C 745.9441 163.62461 743.1842 162.62101 739.6934 162.62101 C 736.2026 162.62101 733.4427 163.62461 731.4136 165.63184 C 729.3846 167.63906 728.1301 170.69349 727.6501 174.7952 Z M 767.5762 190.76565 C 767.1835 193.51468 766.4744 195.9364 765.449 198.0309 C 764.4236 200.1254 763.1909 201.95804 761.7509 203.52892 C 760.311 205.09979 758.6965 206.39792 756.9074 207.42335 C 755.1184 208.44878 753.2639 209.28874 751.344 209.94327 C 749.424 210.5978 747.4932 211.05597 745.5514 211.31778 C 743.6096 211.5796 741.74425 211.7105 739.9552 211.7105 C 736.4644 211.7105 733.0172 211.1978 729.6137 210.17236 C 726.2101 209.14693 723.1666 207.45609 720.483 205.09978 C 717.7995 202.74347 715.63955 199.61269 714.0032 195.70732 C 712.3669 191.80196 711.54875 186.96943 711.54875 181.20956 C 711.54875 175.36243 712.3887 170.48626 714.0687 166.5809 C 715.7486 162.67554 717.9304 159.55566 720.61395 157.22117 C 723.2975 154.88668 726.3083 153.23947 729.6464 152.2795 C 732.9845 151.31952 736.3335 150.83954 739.6934 150.83954 C 742.966 150.83954 746.2714 151.30861 749.6095 152.24677 C 752.9476 153.18493 755.9693 154.79941 758.6747 157.09027 C 761.38005 159.38112 763.5836 162.49009 765.2854 166.41727 C 766.98715 170.34445 767.838 175.27516 767.838 181.20956 L 767.838 183.56586 L 727.3883 183.56586 C 727.5192 188.97664 728.6864 192.99103 730.89 195.60915 C 733.0936 198.22726 736.2462 199.5363 740.3479 199.5363 C 743.6206 199.5363 746.23865 198.7618 748.2022 197.21274 C 750.1658 195.66368 751.3876 193.51468 751.8676 190.76565 Z" fill="black"/>
        </g>
        <g id="Graphic_120">
          <path d="M 794.9354 159.7411 C 795.7209 158.51931 796.6808 157.3739 797.8153 156.30483 C 798.9499 155.23577 800.3025 154.29762 801.8734 153.49037 C 803.4443 152.68312 805.2224 152.0395 807.2078 151.55952 C 809.1932 151.07953 811.4295 150.83954 813.9167 150.83954 C 816.3166 150.83954 818.7165 151.15589 821.1165 151.7886 C 823.5164 152.42131 825.6654 153.59945 827.5636 155.32305 C 829.4617 157.04664 830.9998 159.43564 832.178 162.4901 C 833.3561 165.54458 833.9452 169.51534 833.9452 174.4025 L 833.9452 210.40144 L 817.7129 210.40144 L 817.7129 177.2824 C 817.7129 175.23155 817.5711 173.4207 817.2875 171.84984 C 817.0039 170.27897 816.4912 168.96993 815.7494 167.92268 C 815.0076 166.87543 814.004 166.0791 812.7385 165.53366 C 811.4731 164.98822 809.8586 164.7155 807.895 164.7155 C 805.146 164.7155 802.8552 165.17366 801.0225 166.09 C 799.1898 167.00635 797.7717 167.98813 796.7681 169.03537 L 796.7681 210.40144 L 780.5358 210.40144 L 780.5358 152.1486 L 794.9354 152.1486 Z" fill="black"/>
        </g>
        <g id="Graphic_121">
          <path d="M 847.2975 152.1486 C 849.7411 152.1486 851.4429 151.6468 852.4028 150.64318 C 853.3628 149.63957 853.8428 147.95963 853.8428 145.60333 L 853.8428 135 L 866.6715 135 L 866.6715 152.1486 L 883.8201 152.1486 L 883.8201 164.19188 L 866.6715 164.19188 L 866.6715 189.98022 C 866.6715 191.42018 866.7915 192.6856 867.0315 193.77647 C 867.2715 194.86735 867.7078 195.78368 868.3406 196.52548 C 868.9733 197.26728 869.8351 197.82363 870.9259 198.19453 C 872.0168 198.56543 873.3913 198.75087 875.0495 198.75087 C 876.4894 198.75087 877.9403 198.61997 879.4021 198.35816 C 880.8638 198.09634 882.0311 197.7909 882.9038 197.44182 L 882.9038 209.74692 C 882.4238 209.9651 881.7693 210.19417 880.9402 210.43417 C 880.1111 210.67416 879.173 210.89234 878.1257 211.0887 C 877.0785 211.28505 875.9331 211.43778 874.6895 211.54686 C 873.4459 211.65595 872.1695 211.7105 870.8605 211.7105 C 866.9769 211.7105 863.7262 211.2196 861.108 210.2378 C 858.4899 209.25602 856.3955 207.88153 854.8246 206.1143 C 853.2537 204.34706 852.1301 202.2417 851.4538 199.79811 C 850.7774 197.35454 850.4393 194.69282 850.4393 191.8129 L 850.4393 164.19188 L 842.0613 164.19188 L 842.0613 152.1486 Z" fill="black"/>
        </g>
        <g id="Graphic_122">
          <path d="M 508.64557 266.04142 L 527.88864 266.04142 L 527.88864 339.08657 L 512.0491 339.08657 L 512.0491 287.6408 L 495.68594 319.5817 L 486.5226 319.5817 L 470.1594 287.6408 L 470.1594 339.08657 L 454.3199 339.08657 L 454.3199 266.04142 L 474.7411 266.04142 L 491.6279 299.16046 Z" fill="black"/>
        </g>
        <g id="Graphic_123">
          <path d="M 569.1238 314.7382 C 565.5021 315.1309 562.764 315.93815 560.9095 317.15994 C 559.055 318.38173 558.12776 320.27983 558.12776 322.8543 C 558.12776 324.90518 558.74956 326.48693 559.99316 327.59963 C 561.2368 328.71233 563.23306 329.26868 565.9821 329.26868 C 568.55656 329.26868 570.8474 328.83233 572.8546 327.95962 C 574.8618 327.0869 576.7163 325.9524 578.4181 324.5561 L 578.4181 313.69095 Z M 581.298 331.23226 C 580.51256 332.32314 579.47624 333.414 578.189 334.5049 C 576.90176 335.59577 575.39636 336.57755 573.6728 337.45026 C 571.9492 338.32296 569.9965 339.03203 567.81475 339.57747 C 565.633 340.1229 563.2767 340.39562 560.7459 340.39562 C 558.1714 340.39562 555.74966 340.07927 553.4806 339.44656 C 551.2116 338.81385 549.2262 337.84298 547.52444 336.5339 C 545.82266 335.22486 544.4809 333.534 543.4991 331.46134 C 542.5173 329.38866 542.0264 326.9124 542.0264 324.03246 C 542.0264 321.63252 542.3755 319.52715 543.07366 317.7163 C 543.7718 315.90542 544.7209 314.3564 545.92085 313.06915 C 547.1208 311.7819 548.5171 310.71286 550.1098 309.86197 C 551.7025 309.01108 553.38244 308.31292 555.1497 307.7675 C 556.9169 307.22204 558.7168 306.81842 560.5495 306.5566 C 562.3822 306.2948 564.1494 306.09844 565.8512 305.96754 L 578.4181 304.9203 L 578.4181 303.61124 C 578.4181 301.73492 578.309 300.055 578.0908 298.5714 C 577.87264 297.0878 577.4363 295.82238 576.7818 294.77513 C 576.12724 293.7279 575.1891 292.93155 573.9673 292.3861 C 572.7455 291.84067 571.131 291.56795 569.1238 291.56795 C 565.58935 291.56795 563.124 292.397 561.72766 294.05515 C 560.3313 295.7133 559.61136 298.06957 559.5677 301.12404 L 544.3827 301.12404 C 544.47 296.71687 545.33176 293.1061 546.9681 290.29163 C 548.6044 287.47715 550.67706 285.2736 553.1861 283.6809 C 555.6951 282.08822 558.48774 280.99736 561.564 280.40828 C 564.6403 279.8192 567.68383 279.52467 570.6947 279.52467 C 575.1891 279.52467 578.9635 280.0483 582.018 281.09553 C 585.07245 282.14278 587.5269 283.64817 589.3814 285.61176 C 591.2359 287.57535 592.55585 289.95344 593.3413 292.7461 C 594.1267 295.53876 594.5194 298.68046 594.5194 302.1713 L 594.5194 324.687 C 594.5194 325.8215 594.7485 326.6724 595.2067 327.23964 C 595.66486 327.8069 596.483 328.09053 597.66116 328.09053 C 598.4466 328.09053 599.25384 327.98144 600.0829 327.76327 C 600.912 327.5451 601.63195 327.26146 602.24284 326.9124 L 602.24284 337.90842 C 601.1956 338.56295 599.75565 339.1411 597.923 339.6429 C 596.0903 340.14473 594.0831 340.39562 591.9013 340.39562 C 589.71956 340.39562 587.94145 340.1338 586.56694 339.6102 C 585.1924 339.08657 584.1125 338.42114 583.327 337.6139 C 582.5416 336.80663 582.0071 335.9012 581.72344 334.8976 C 581.4398 333.894 581.298 332.8904 581.298 331.8868 Z" fill="black"/>
        </g>
        <g id="Graphic_124">
          <path d="M 626.5912 288.42623 C 627.37666 287.20444 628.3366 286.05903 629.47114 284.98996 C 630.60566 283.9209 631.9583 282.98275 633.5292 282.1755 C 635.1001 281.36825 636.8782 280.72464 638.8636 280.24465 C 640.849 279.76466 643.0853 279.52467 645.5725 279.52467 C 647.9724 279.52467 650.37234 279.84102 652.7723 280.47373 C 655.1722 281.10644 657.3212 282.28458 659.2194 284.00817 C 661.1175 285.73177 662.6556 288.12077 663.8338 291.17524 C 665.0119 294.2297 665.601 298.20046 665.601 303.08762 L 665.601 339.08657 L 649.36875 339.08657 L 649.36875 305.96754 C 649.36875 303.91668 649.2269 302.10584 648.9433 300.53497 C 648.6597 298.9641 648.147 297.65506 647.4052 296.6078 C 646.6634 295.56056 645.6598 294.76423 644.39434 294.2188 C 643.1289 293.67334 641.51444 293.40063 639.55085 293.40063 C 636.8018 293.40063 634.511 293.8588 632.6783 294.77513 C 630.84564 295.69148 629.4275 296.67326 628.4239 297.7205 L 628.4239 339.08657 L 612.19165 339.08657 L 612.19165 280.83372 L 626.5912 280.83372 Z" fill="black"/>
        </g>
        <g id="Graphic_125">
          <path d="M 704.4799 314.7382 C 700.8581 315.1309 698.1201 315.93815 696.2656 317.15994 C 694.4111 318.38173 693.4838 320.27983 693.4838 322.8543 C 693.4838 324.90518 694.1056 326.48693 695.3492 327.59963 C 696.5928 328.71233 698.5891 329.26868 701.33814 329.26868 C 703.9126 329.26868 706.20345 328.83233 708.2107 327.95962 C 710.2179 327.0869 712.0724 325.9524 713.77414 324.5561 L 713.77414 313.69095 Z M 716.6541 331.23226 C 715.8686 332.32314 714.8323 333.414 713.5451 334.5049 C 712.2578 335.59577 710.7524 336.57755 709.0288 337.45026 C 707.3052 338.32296 705.3526 339.03203 703.1708 339.57747 C 700.98905 340.1229 698.6328 340.39562 696.1019 340.39562 C 693.52745 340.39562 691.1057 340.07927 688.8367 339.44656 C 686.56765 338.81385 684.5823 337.84298 682.8805 336.5339 C 681.1787 335.22486 679.83696 333.534 678.8552 331.46134 C 677.8734 329.38866 677.3825 326.9124 677.3825 324.03246 C 677.3825 321.63252 677.73155 319.52715 678.4297 317.7163 C 679.1279 315.90542 680.0769 314.3564 681.2769 313.06915 C 682.4769 311.7819 683.8732 310.71286 685.4659 309.86197 C 687.0586 309.01108 688.7385 308.31292 690.5057 307.7675 C 692.273 307.22204 694.0729 306.81842 695.9056 306.5566 C 697.73826 306.2948 699.5055 306.09844 701.2072 305.96754 L 713.77414 304.9203 L 713.77414 303.61124 C 713.77414 301.73492 713.6651 300.055 713.4469 298.5714 C 713.2287 297.0878 712.7924 295.82238 712.1378 294.77513 C 711.4833 293.7279 710.54515 292.93155 709.3234 292.3861 C 708.1016 291.84067 706.4871 291.56795 704.4799 291.56795 C 700.9454 291.56795 698.48005 292.397 697.0837 294.05515 C 695.6874 295.7133 694.9674 298.06957 694.9238 301.12404 L 679.7388 301.12404 C 679.82604 296.71687 680.6878 293.1061 682.32415 290.29163 C 683.9605 287.47715 686.0331 285.2736 688.54215 283.6809 C 691.0512 282.08822 693.8438 280.99736 696.9201 280.40828 C 699.9964 279.8192 703.0399 279.52467 706.0507 279.52467 C 710.5452 279.52467 714.3196 280.0483 717.374 281.09553 C 720.4285 282.14278 722.883 283.64817 724.7375 285.61176 C 726.592 287.57535 727.9119 289.95344 728.69735 292.7461 C 729.4828 295.53876 729.8755 298.68046 729.8755 302.1713 L 729.8755 324.687 C 729.8755 325.8215 730.1046 326.6724 730.56275 327.23964 C 731.0209 327.8069 731.8391 328.09053 733.0172 328.09053 C 733.8027 328.09053 734.6099 327.98144 735.439 327.76327 C 736.268 327.5451 736.988 327.26146 737.5989 326.9124 L 737.5989 337.90842 C 736.5517 338.56295 735.1117 339.1411 733.279 339.6429 C 731.44635 340.14473 729.43915 340.39562 727.2574 340.39562 C 725.0756 340.39562 723.2975 340.1338 721.923 339.6102 C 720.5485 339.08657 719.4685 338.42114 718.6831 337.6139 C 717.8977 336.80663 717.3631 335.9012 717.0795 334.8976 C 716.7959 333.894 716.6541 332.8904 716.6541 331.8868 Z" fill="black"/>
        </g>
        <g id="Graphic_126">
          <path d="M 745.715 300.86223 C 745.715 297.02232 746.5332 293.74972 748.1695 291.04433 C 749.8058 288.33894 751.8785 286.1354 754.3875 284.4336 C 756.8965 282.73184 759.6564 281.48825 762.6673 280.7028 C 765.6781 279.91738 768.5798 279.52467 771.3725 279.52467 C 773.07425 279.52467 774.8305 279.66648 776.6414 279.9501 C 778.4523 280.23374 780.2304 280.6701 781.9758 281.25916 C 783.7212 281.84824 785.4011 282.61185 787.01565 283.55 C 788.6302 284.48817 790.0919 285.58994 791.401 286.85536 C 792.7537 284.71723 794.6845 282.96094 797.1935 281.58643 C 799.7026 280.2119 802.9206 279.52467 806.8478 279.52467 L 806.8478 293.66244 C 804.4915 293.66244 802.4734 293.77153 800.7934 293.9897 C 799.1135 294.20788 797.6408 294.6224 796.3754 295.2333 C 796.5936 296.106 796.779 297.00052 796.9317 297.91686 C 797.08445 298.8332 797.1608 299.81498 797.1608 300.86223 C 797.1608 304.70214 796.3427 307.97474 794.7063 310.68013 C 793.07 313.3855 790.9974 315.58907 788.4883 317.29084 C 785.9793 318.99262 783.2194 320.2362 780.2086 321.02164 C 777.1977 321.80708 774.296 322.1998 771.5034 322.1998 C 769.8452 322.1998 768.1326 322.0689 766.3653 321.80707 C 764.5981 321.54526 762.8636 321.15255 761.1619 320.62893 C 760.28915 321.1089 759.5037 321.7307 758.8056 322.49433 C 758.1074 323.25795 757.7583 324.16336 757.7583 325.2106 C 757.7583 326.60694 758.4783 327.71963 759.9183 328.5487 C 761.3582 329.37777 763.5618 329.7923 766.529 329.7923 L 781.4522 329.7923 C 784.463 329.7923 787.3102 330.08683 789.9937 330.6759 C 792.6773 331.265 795.0227 332.21404 797.0299 333.5231 C 799.0371 334.83216 800.6298 336.523 801.8079 338.59568 C 802.9861 340.66835 803.5752 343.18826 803.5752 346.15546 C 803.5752 349.47174 802.8334 352.38435 801.3498 354.8934 C 799.8662 357.4024 797.7499 359.5078 795.0009 361.20956 C 792.25185 362.91134 788.9029 364.18766 784.9539 365.03854 C 781.0049 365.88943 776.5651 366.31487 771.6343 366.31487 C 766.9653 366.31487 762.8309 365.94398 759.231 365.20218 C 755.6311 364.46038 752.6094 363.40224 750.1658 362.02772 C 747.7222 360.6532 745.8678 359.006 744.6023 357.08605 C 743.3369 355.1661 742.7042 353.0498 742.7042 350.73714 C 742.7042 349.16627 742.9769 347.75905 743.5224 346.51545 C 744.0678 345.27184 744.7987 344.18097 745.715 343.2428 C 746.6314 342.30466 747.6786 341.4974 748.8568 340.82107 C 750.0349 340.1447 751.2567 339.56656 752.5221 339.08657 C 751.5185 338.6502 750.5585 338.1048 749.6422 337.45026 C 748.72585 336.79573 747.9295 336.0212 747.2532 335.1267 C 746.5768 334.23216 746.0423 333.23947 745.6496 332.1486 C 745.2569 331.0577 745.0605 329.87957 745.0605 328.61415 C 745.0605 327.2178 745.3005 325.9415 745.7805 324.78517 C 746.2605 323.62883 746.9259 322.5816 747.7768 321.64344 C 748.6277 320.7053 749.6204 319.87623 750.7549 319.15624 C 751.8894 318.43626 753.0894 317.79265 754.3548 317.2254 C 751.8676 315.5236 749.8058 313.32006 748.1695 310.61467 C 746.5332 307.9093 745.715 304.6585 745.715 300.86223 Z M 760.1146 342.7519 C 759.111 343.2319 758.2492 343.9519 757.5292 344.91186 C 756.80925 345.87183 756.4493 347.0718 756.4493 348.51175 C 756.4493 350.82442 757.6601 352.668 760.0819 354.0425 C 762.50365 355.417 766.5289 356.10426 772.1579 356.10426 C 777.3069 356.10426 781.2776 355.47156 784.0703 354.20613 C 786.8629 352.9407 788.25925 350.95533 788.25925 348.24994 C 788.25925 346.33 787.4956 344.93368 785.9684 344.06097 C 784.4412 343.18827 781.9758 342.7519 778.5723 342.7519 Z M 781.9758 300.86223 C 781.9758 297.76412 781.0486 295.3315 779.1941 293.56426 C 777.3396 291.79703 774.7324 290.91343 771.3725 290.91343 C 768.0998 290.91343 765.5363 291.79703 763.6818 293.56426 C 761.8273 295.3315 760.90005 297.76412 760.90005 300.86223 C 760.90005 303.96034 761.8273 306.39297 763.6818 308.1602 C 765.5363 309.92743 768.1435 310.81103 771.5034 310.81103 C 774.776 310.81103 777.3396 309.92743 779.1941 308.1602 C 781.0486 306.39297 781.9758 303.96034 781.9758 300.86223 Z" fill="black"/>
        </g>
        <g id="Graphic_127">
          <path d="M 851.8792 303.48034 C 851.3992 299.3786 850.1447 296.3242 848.1157 294.31697 C 846.0866 292.30974 843.3268 291.30614 839.8359 291.30614 C 836.3451 291.30614 833.5852 292.30974 831.5562 294.31697 C 829.5271 296.3242 828.2726 299.3786 827.7926 303.48034 Z M 867.7188 319.45078 C 867.326 322.1998 866.617 324.62153 865.5915 326.71602 C 864.5661 328.8105 863.3334 330.64317 861.8935 332.21404 C 860.4535 333.7849 858.839 335.08305 857.05 336.10848 C 855.2609 337.1339 853.4065 337.97387 851.4865 338.6284 C 849.5665 339.28293 847.6357 339.7411 845.6939 340.0029 C 843.7522 340.26472 841.8868 340.39562 840.0977 340.39562 C 836.6069 340.39562 833.1598 339.8829 829.7562 338.8575 C 826.3527 337.83206 823.3092 336.1412 820.6256 333.7849 C 817.942 331.4286 815.7821 328.2978 814.1458 324.39245 C 812.5094 320.4871 811.6913 315.65456 811.6913 309.8947 C 811.6913 304.04756 812.5313 299.1714 814.2112 295.26603 C 815.8912 291.36067 818.0729 288.2408 820.7565 285.9063 C 823.4401 283.5718 826.45085 281.9246 829.789 280.96463 C 833.1271 280.00465 836.476 279.52467 839.8359 279.52467 C 843.1086 279.52467 846.4139 279.99374 849.752 280.9319 C 853.0901 281.87006 856.1118 283.48454 858.8172 285.7754 C 861.5226 288.06625 863.7261 291.17522 865.4279 295.1024 C 867.1297 299.02958 867.9806 303.9603 867.9806 309.8947 L 867.9806 312.251 L 827.5308 312.251 C 827.6617 317.66177 828.829 321.67616 831.0326 324.29428 C 833.2361 326.9124 836.3887 328.22143 840.4905 328.22143 C 843.7631 328.22143 846.3812 327.4469 848.3448 325.89786 C 850.3084 324.3488 851.5301 322.1998 852.0101 319.45078 Z" fill="black"/>
        </g>
        <g id="Graphic_128">
          <path d="M 895.078 288.42623 C 895.8198 287.20444 896.7252 286.05903 897.7942 284.98996 C 898.8633 283.9209 900.1178 282.98275 901.5578 282.1755 C 902.9977 281.36825 904.6559 280.72464 906.5322 280.24465 C 908.4085 279.76466 910.5248 279.52467 912.8811 279.52467 C 914.4083 279.52467 915.9464 279.65557 917.4955 279.9174 C 919.0445 280.1792 920.539 280.64827 921.979 281.3246 C 923.419 282.00096 924.7498 282.9173 925.9716 284.07363 C 927.1934 285.22996 928.2406 286.6808 929.1133 288.42623 C 929.986 287.20444 931.0224 286.04812 932.2223 284.95724 C 933.4223 283.86635 934.7859 282.9173 936.3131 282.11005 C 937.8404 281.3028 939.5639 280.6701 941.4839 280.21192 C 943.4038 279.75375 945.5201 279.52467 947.8328 279.52467 C 950.1455 279.52467 952.4472 279.84102 954.738 280.47373 C 957.0289 281.10644 959.0906 282.28458 960.9233 284.00817 C 962.756 285.73177 964.2396 288.12077 965.3741 291.17524 C 966.5086 294.2297 967.0759 298.20046 967.0759 303.08762 L 967.0759 339.08657 L 950.8436 339.08657 L 950.8436 305.96754 C 950.8436 303.9603 950.7127 302.1713 950.4509 300.60042 C 950.1891 299.02955 949.7309 297.7096 949.0764 296.64053 C 948.4219 295.57147 947.5274 294.76423 946.3928 294.2188 C 945.2583 293.67334 943.8184 293.40063 942.073 293.40063 C 939.5857 293.40063 937.4913 293.8588 935.7895 294.77513 C 934.0877 295.69148 932.735 296.67326 931.7314 297.7205 C 931.8187 298.5932 931.8842 299.455 931.9278 300.30588 C 931.9714 301.15677 931.9933 302.084 931.9933 303.08762 L 931.9933 339.08657 L 915.761 339.08657 L 915.761 305.96754 C 915.761 303.91668 915.6301 302.10584 915.3683 300.53497 C 915.1065 298.9641 914.6483 297.65506 913.9938 296.6078 C 913.3392 295.56056 912.4447 294.76423 911.3102 294.2188 C 910.1757 293.67334 908.7358 293.40063 906.9903 293.40063 C 904.5031 293.40063 902.4196 293.8588 900.7396 294.77513 C 899.0597 295.69148 897.7833 296.67326 896.9106 297.7205 L 896.9106 339.08657 L 880.6784 339.08657 L 880.6784 280.83372 L 895.078 280.83372 Z" fill="black"/>
        </g>
        <g id="Graphic_129">
          <path d="M 1019.6998 303.48034 C 1019.2198 299.3786 1017.9653 296.3242 1015.9363 294.31697 C 1013.9072 292.30974 1011.1473 291.30614 1007.6565 291.30614 C 1004.1657 291.30614 1001.4058 292.30974 999.3767 294.31697 C 997.3477 296.3242 996.0932 299.3786 995.6132 303.48034 Z M 1035.5393 319.45078 C 1035.1466 322.1998 1034.4375 324.62153 1033.4121 326.71602 C 1032.3867 328.8105 1031.154 330.64317 1029.714 332.21404 C 1028.2741 333.7849 1026.6596 335.08305 1024.8705 336.10848 C 1023.0815 337.1339 1021.227 337.97387 1019.3071 338.6284 C 1017.3871 339.28293 1015.4563 339.7411 1013.5145 340.0029 C 1011.5727 340.26472 1009.7074 340.39562 1007.9183 340.39562 C 1004.4275 340.39562 1000.9804 339.8829 997.5768 338.8575 C 994.1732 337.83206 991.1297 336.1412 988.4462 333.7849 C 985.7626 331.4286 983.6027 328.2978 981.9663 324.39245 C 980.33 320.4871 979.5119 315.65456 979.5119 309.8947 C 979.5119 304.04756 980.3518 299.1714 982.0318 295.26603 C 983.7118 291.36067 985.8935 288.2408 988.5771 285.9063 C 991.2606 283.5718 994.2714 281.9246 997.6095 280.96463 C 1000.9476 280.00465 1004.2966 279.52467 1007.6565 279.52467 C 1010.9292 279.52467 1014.2345 279.99374 1017.5726 280.9319 C 1020.9107 281.87006 1023.9324 283.48454 1026.6378 285.7754 C 1029.3432 288.06625 1031.5467 291.17522 1033.2485 295.1024 C 1034.9503 299.02958 1035.8011 303.9603 1035.8011 309.8947 L 1035.8011 312.251 L 995.3514 312.251 C 995.4823 317.66177 996.6495 321.67616 998.8531 324.29428 C 1001.0567 326.9124 1004.2093 328.22143 1008.311 328.22143 C 1011.5837 328.22143 1014.2018 327.4469 1016.1653 325.89786 C 1018.1289 324.3488 1019.3507 322.1998 1019.8307 319.45078 Z" fill="black"/>
        </g>
        <g id="Graphic_130">
          <path d="M 1062.8985 288.42623 C 1063.684 287.20444 1064.6439 286.05903 1065.7785 284.98996 C 1066.913 283.9209 1068.2656 282.98275 1069.8365 282.1755 C 1071.4074 281.36825 1073.1855 280.72464 1075.1709 280.24465 C 1077.1563 279.76466 1079.3926 279.52467 1081.8798 279.52467 C 1084.2797 279.52467 1086.6796 279.84102 1089.0796 280.47373 C 1091.4795 281.10644 1093.6285 282.28458 1095.5267 284.00817 C 1097.4248 285.73177 1098.9629 288.12077 1100.1411 291.17524 C 1101.3192 294.2297 1101.9083 298.20046 1101.9083 303.08762 L 1101.9083 339.08657 L 1085.676 339.08657 L 1085.676 305.96754 C 1085.676 303.91668 1085.5342 302.10584 1085.2506 300.53497 C 1084.967 298.9641 1084.4543 297.65506 1083.7125 296.6078 C 1082.9707 295.56056 1081.9671 294.76423 1080.7017 294.2188 C 1079.4362 293.67334 1077.8217 293.40063 1075.8582 293.40063 C 1073.1091 293.40063 1070.8183 293.8588 1068.9856 294.77513 C 1067.153 295.69148 1065.7348 296.67326 1064.7312 297.7205 L 1064.7312 339.08657 L 1048.499 339.08657 L 1048.499 280.83372 L 1062.8985 280.83372 Z" fill="black"/>
        </g>
        <g id="Graphic_131">
          <path d="M 1115.2606 280.83372 C 1117.7042 280.83372 1119.406 280.33192 1120.366 279.3283 C 1121.3259 278.3247 1121.8059 276.64476 1121.8059 274.28846 L 1121.8059 263.68513 L 1134.6346 263.68513 L 1134.6346 280.83372 L 1151.7832 280.83372 L 1151.7832 292.877 L 1134.6346 292.877 L 1134.6346 318.66535 C 1134.6346 320.1053 1134.7546 321.3707 1134.9946 322.4616 C 1135.2346 323.5525 1135.671 324.4688 1136.3037 325.2106 C 1136.9364 325.9524 1137.7982 326.50875 1138.889 326.87965 C 1139.98 327.25055 1141.3544 327.436 1143.0126 327.436 C 1144.4525 327.436 1145.9034 327.3051 1147.3652 327.0433 C 1148.827 326.78147 1149.9942 326.47603 1150.8669 326.12695 L 1150.8669 338.43205 C 1150.3869 338.65022 1149.7324 338.8793 1148.9033 339.1193 C 1148.0742 339.3593 1147.1361 339.57747 1146.0888 339.77382 C 1145.0416 339.9702 1143.8962 340.1229 1142.6526 340.232 C 1141.409 340.3411 1140.1327 340.39562 1138.8236 340.39562 C 1134.94 340.39562 1131.6893 339.90473 1129.0712 338.92294 C 1126.453 337.94115 1124.3586 336.56665 1122.7877 334.79942 C 1121.2168 333.0322 1120.0932 330.92682 1119.4169 328.48324 C 1118.7405 326.03967 1118.4024 323.37795 1118.4024 320.49802 L 1118.4024 292.877 L 1110.0244 292.877 L 1110.0244 280.83372 Z" fill="black"/>
        </g>
        <g id="Graphic_132">
          <path d="M 466.8868 445.256 C 467.0613 447.2196 467.59585 448.8995 468.49037 450.29585 C 469.3849 451.6922 470.5303 452.8485 471.92663 453.76484 C 473.32296 454.6812 474.92654 455.3466 476.7374 455.76114 C 478.54827 456.1757 480.4573 456.38294 482.4645 456.38294 C 486.4353 456.38294 489.47884 455.63024 491.59515 454.1248 C 493.71147 452.6194 494.7696 450.6231 494.7696 448.1359 C 494.7696 446.08505 494.0278 444.3615 492.5442 442.96515 C 491.0606 441.5688 488.6171 440.4125 485.2135 439.49616 L 470.55213 435.569 C 464.4432 433.91086 459.7743 431.40187 456.54526 428.04195 C 453.31625 424.68203 451.70177 420.29675 451.70177 414.88597 C 451.70177 411.04606 452.4872 407.76255 454.05806 405.03534 C 455.62894 402.30814 457.7234 400.08277 460.3415 398.35918 C 462.95964 396.6356 465.9595 395.3811 469.34126 394.59565 C 472.723 393.8102 476.2247 393.4175 479.8464 393.4175 C 483.8172 393.4175 487.52616 393.88657 490.97335 394.82473 C 494.42054 395.7629 497.43133 397.19193 500.0058 399.1119 C 502.5803 401.03183 504.65295 403.45356 506.2238 406.3771 C 507.7947 409.3007 508.73284 412.74783 509.0383 416.71864 L 492.2824 416.71864 C 492.1515 414.8423 491.70425 413.22784 490.9406 411.87515 C 490.177 410.52245 489.1843 409.4207 487.96253 408.5698 C 486.74074 407.7189 485.34443 407.0971 483.77356 406.7044 C 482.2027 406.31167 480.5446 406.1153 478.79916 406.1153 C 475.3956 406.1153 472.79935 406.79165 471.0103 408.14434 C 469.22125 409.49704 468.32674 411.3515 468.32674 413.7078 C 468.32674 415.62777 469.014 417.25316 470.3885 418.58404 C 471.763 419.9149 474.21746 421.08215 477.7519 422.08576 L 492.4133 426.0129 C 495.3369 426.79835 497.96587 427.78013 500.30035 428.9583 C 502.63484 430.13644 504.6202 431.5764 506.25655 433.27816 C 507.89287 434.97994 509.1583 436.9435 510.0528 439.1689 C 510.9473 441.3943 511.3946 443.9469 511.3946 446.82686 C 511.3946 450.9286 510.5546 454.3866 508.87465 457.2011 C 507.1947 460.0156 504.9584 462.3064 502.16576 464.0736 C 499.3731 465.84086 496.18777 467.11717 492.60967 467.9026 C 489.0316 468.68804 485.34445 469.08075 481.5482 469.08075 C 477.0101 469.08075 472.8648 468.55714 469.11217 467.5099 C 465.35953 466.46264 462.11966 464.9245 459.39245 462.8955 C 456.66525 460.86644 454.4944 458.37926 452.8799 455.4339 C 451.2654 452.4885 450.30545 449.0959 450 445.256 Z" fill="black"/>
        </g>
        <g id="Graphic_133">
          <path d="M 521.6052 480.7313 C 522.4779 480.99314 523.4924 481.25494 524.64874 481.51676 C 525.8051 481.77857 527.01594 481.9095 528.28136 481.9095 C 530.24495 481.9095 531.9467 481.4404 533.38667 480.50224 C 534.8266 479.5641 536.00477 477.8078 536.9211 475.2333 L 538.7538 470.2589 L 517.1544 409.51885 L 534.5648 409.51885 L 547.52444 451.0158 L 560.48406 409.51885 L 576.3236 409.51885 L 553.2843 474.7097 C 552.41156 477.1096 551.4189 479.50953 550.3062 481.9095 C 549.1935 484.3094 547.7535 486.48024 545.9863 488.422 C 544.2191 490.3638 542.05915 491.94554 539.5065 493.1673 C 536.9538 494.3891 533.82303 495 530.11403 495 C 527.93227 495 526.0996 494.83637 524.616 494.5091 C 523.1324 494.18184 522.1288 493.9091 521.6052 493.69095 Z" fill="black"/>
        </g>
        <g id="Graphic_134">
          <path d="M 597.9884 448.79044 C 598.03206 450.18677 598.3593 451.4631 598.9702 452.6194 C 599.5811 453.77575 600.39926 454.76844 601.4247 455.5975 C 602.4501 456.4266 603.6719 457.0702 605.09 457.52836 C 606.5082 457.98653 608.0681 458.2156 609.7699 458.2156 C 612.4753 458.2156 614.67884 457.64836 616.3806 456.51385 C 618.0824 455.37933 618.9333 453.76485 618.9333 451.67035 C 618.9333 450.31766 618.54056 449.2377 617.7551 448.43045 C 616.9697 447.6232 615.8243 446.93595 614.31886 446.3687 C 612.81344 445.80143 610.9808 445.2669 608.8208 444.7651 C 606.6609 444.2633 604.22825 443.6415 601.5229 442.8997 C 599.5593 442.33244 597.5521 441.6561 595.5012 440.87067 C 593.45036 440.08523 591.5959 439.0489 589.93775 437.76167 C 588.2796 436.4744 586.916 434.85994 585.84696 432.91817 C 584.7779 430.9764 584.2434 428.5874 584.2434 425.7511 C 584.2434 422.5221 584.9306 419.784 586.3051 417.5368 C 587.67964 415.2896 589.4905 413.47874 591.7377 412.10423 C 593.9849 410.7297 596.54845 409.73703 599.4284 409.12613 C 602.3083 408.51524 605.2318 408.2098 608.199 408.2098 C 611.5153 408.2098 614.6243 408.5807 617.526 409.3225 C 620.4278 410.0643 622.9695 411.1879 625.1513 412.6933 C 627.333 414.1987 629.10024 416.10774 630.4529 418.4204 C 631.8056 420.7331 632.59105 423.43843 632.8092 426.53654 L 616.8388 426.53654 C 616.7079 424.31114 615.8243 422.5112 614.18795 421.1367 C 612.5516 419.7622 610.42444 419.07494 607.8063 419.07494 C 605.7118 419.07494 603.9446 419.544 602.50465 420.48217 C 601.0647 421.42033 600.3447 422.7839 600.3447 424.57296 C 600.3447 425.92565 600.78106 426.9947 601.6538 427.78014 C 602.5265 428.56557 603.74825 429.2201 605.3191 429.7437 C 606.89 430.26734 608.74446 430.75823 610.8826 431.2164 C 613.0207 431.67457 615.3552 432.25273 617.886 432.9509 C 620.02416 433.5618 622.1295 434.28176 624.2022 435.11083 C 626.2749 435.9399 628.10754 437.03077 629.7002 438.38347 C 631.2929 439.73616 632.58014 441.3943 633.5619 443.35787 C 634.5437 445.32146 635.0346 447.69954 635.0346 450.4922 C 635.0346 453.98303 634.2928 456.90655 632.8092 459.26286 C 631.3256 461.61916 629.3839 463.5282 626.98394 464.98996 C 624.584 466.45175 621.8568 467.499 618.80236 468.1317 C 615.7479 468.7644 612.6498 469.08075 609.5081 469.08075 C 605.75545 469.08075 602.2538 468.6662 599.00294 467.83715 C 595.7521 467.0081 592.91585 465.7427 590.4941 464.0409 C 588.0723 462.3391 586.1197 460.22284 584.6361 457.692 C 583.1525 455.16115 582.2798 452.194 582.018 448.79044 Z" fill="black"/>
        </g>
        <g id="Graphic_135">
          <path d="M 645.63795 409.51885 C 648.0815 409.51885 649.7833 409.01705 650.74325 408.01344 C 651.7032 407.00983 652.1832 405.3299 652.1832 402.9736 L 652.1832 392.37026 L 665.0119 392.37026 L 665.0119 409.51885 L 682.1605 409.51885 L 682.1605 421.56214 L 665.0119 421.56214 L 665.0119 447.3505 C 665.0119 448.79044 665.1319 450.05585 665.3719 451.14673 C 665.6119 452.2376 666.04826 453.15394 666.681 453.89574 C 667.3137 454.63754 668.1755 455.1939 669.26635 455.5648 C 670.3572 455.9357 671.7317 456.12113 673.3899 456.12113 C 674.8298 456.12113 676.2807 455.9902 677.7425 455.7284 C 679.20425 455.4666 680.3715 455.16116 681.2442 454.8121 L 681.2442 467.1172 C 680.7642 467.33535 680.1097 467.56443 679.2806 467.8044 C 678.4515 468.0444 677.5134 468.2626 676.4661 468.45895 C 675.4189 468.6553 674.2735 468.80803 673.0299 468.9171 C 671.7863 469.0262 670.50996 469.08075 669.2009 469.08075 C 665.31735 469.08075 662.0666 468.58986 659.44845 467.60807 C 656.8303 466.6263 654.7359 465.2518 653.165 463.48455 C 651.5941 461.7173 650.4705 459.61195 649.7942 457.1684 C 649.11784 454.7248 648.7797 452.0631 648.7797 449.18315 L 648.7797 421.56214 L 640.4017 421.56214 L 640.4017 409.51885 Z" fill="black"/>
        </g>
        <g id="Graphic_136">
          <path d="M 729.94095 432.16546 C 729.461 428.06374 728.2065 425.0093 726.1774 423.0021 C 724.1484 420.99487 721.3885 419.99127 717.8977 419.99127 C 714.4068 419.99127 711.64694 420.99487 709.6179 423.0021 C 707.5889 425.0093 706.3344 428.06374 705.8544 432.16546 Z M 745.7805 448.1359 C 745.3878 450.88493 744.6787 453.30666 743.6533 455.40115 C 742.62785 457.49565 741.3952 459.3283 739.9552 460.8992 C 738.5152 462.47005 736.90075 463.7682 735.1117 464.7936 C 733.3227 465.81904 731.4682 466.659 729.5482 467.31353 C 727.6283 467.96806 725.69744 468.4262 723.7557 468.68804 C 721.8139 468.94985 719.9485 469.08075 718.1595 469.08075 C 714.66865 469.08075 711.2215 468.56805 707.81795 467.5426 C 704.4144 466.5172 701.3709 464.82634 698.6873 462.47004 C 696.0037 460.11373 693.8438 456.98294 692.2075 453.0776 C 690.5712 449.1722 689.753 444.3397 689.753 438.5798 C 689.753 432.7327 690.593 427.8565 692.27295 423.95116 C 693.9529 420.0458 696.13464 416.9259 698.8182 414.59143 C 701.5018 412.25694 704.5126 410.60973 707.8507 409.64976 C 711.1888 408.6898 714.5377 408.2098 717.8977 408.2098 C 721.1703 408.2098 724.4756 408.67887 727.8137 409.61703 C 731.1518 410.5552 734.1735 412.16967 736.8789 414.46052 C 739.5843 416.7514 741.7879 419.86035 743.4896 423.78753 C 745.1914 427.7147 746.0423 432.6454 746.0423 438.5798 L 746.0423 440.9361 L 705.5926 440.9361 C 705.7235 446.3469 706.8907 450.3613 709.0943 452.9794 C 711.2979 455.5975 714.4505 456.90656 718.5522 456.90656 C 721.8248 456.90656 724.4429 456.13205 726.4065 454.583 C 728.3701 453.03394 729.5919 450.88493 730.07185 448.1359 Z" fill="black"/>
        </g>
        <g id="Graphic_137">
          <path d="M 773.1397 417.11136 C 773.8815 415.88957 774.7869 414.74416 775.856 413.6751 C 776.925 412.60603 778.1795 411.6679 779.6195 410.86063 C 781.0595 410.0534 782.7176 409.40977 784.5939 408.9298 C 786.4702 408.4498 788.5865 408.2098 790.9428 408.2098 C 792.47 408.2098 794.0082 408.3407 795.5572 408.6025 C 797.1063 408.86433 798.6008 409.3334 800.0407 410.00975 C 801.4807 410.6861 802.81155 411.6024 804.0333 412.75876 C 805.2551 413.9151 806.3024 415.36594 807.1751 417.11136 C 808.0478 415.88957 809.0841 414.73325 810.2841 413.64237 C 811.484 412.5515 812.8476 411.60243 814.3749 410.7952 C 815.9021 409.9879 817.6257 409.3552 819.5456 408.89705 C 821.4656 408.4389 823.5818 408.2098 825.8945 408.2098 C 828.2072 408.2098 830.5089 408.52615 832.7998 409.15886 C 835.0906 409.79157 837.1524 410.9697 838.985 412.6933 C 840.8177 414.4169 842.3013 416.8059 843.4358 419.86037 C 844.5703 422.91484 845.1376 426.8856 845.1376 431.77275 L 845.1376 467.7717 L 828.9053 467.7717 L 828.9053 434.65266 C 828.9053 432.64544 828.7744 430.8564 828.5126 429.28555 C 828.2508 427.7147 827.7926 426.39473 827.1381 425.32566 C 826.4836 424.2566 825.5891 423.44936 824.4546 422.9039 C 823.32 422.35847 821.8801 422.08576 820.1347 422.08576 C 817.6475 422.08576 815.553 422.5439 813.8512 423.46026 C 812.1495 424.3766 810.7968 425.3584 809.7932 426.40563 C 809.8804 427.27834 809.9459 428.1401 809.9895 428.991 C 810.0332 429.8419 810.055 430.76914 810.055 431.77275 L 810.055 467.7717 L 793.8227 467.7717 L 793.8227 434.65266 C 793.8227 432.6018 793.6918 430.79097 793.43 429.2201 C 793.1682 427.6492 792.71 426.3402 792.0555 425.29294 C 791.401 424.2457 790.5065 423.44936 789.3719 422.9039 C 788.2374 422.35847 786.7975 422.08576 785.0521 422.08576 C 782.5649 422.08576 780.4813 422.5439 778.8013 423.46026 C 777.1214 424.3766 775.8451 425.3584 774.9724 426.40563 L 774.9724 467.7717 L 758.7401 467.7717 L 758.7401 409.51885 L 773.1397 409.51885 Z" fill="black"/>
        </g>
      </g>
    </g>
  </g>
</svg>
