<?xml version="1.0" encoding="UTF-8" standalone="no"?>
<!DOCTYPE svg PUBLIC "-//W3C//DTD SVG 1.1//EN" "http://www.w3.org/Graphics/SVG/1.1/DTD/svg11.dtd">
<svg version="1.1" xmlns:dc="http://purl.org/dc/elements/1.1/" xmlns="http://www.w3.org/2000/svg" xmlns:xl="http://www.w3.org/1999/xlink" viewBox="0 0 32 32" width="32" height="32">
  <style>
      path {
          fill: #000;
      }
      @media (prefers-color-scheme: dark) {
          path {
              fill: #fff;
          }
      }
  </style>
  <defs/>
  <g id="favicon" fill-opacity="1" stroke-dasharray="none" fill="none" stroke="none" stroke-opacity="1">
    <title>favicon</title>
    <g id="favicon: JP">
      <title>JP</title>
      <g id="JP-J">
        <path d="M 14.68621 19.120111 C 14.68621 20.285873 14.551921 21.25447 14.283339 22.02593 C 14.014756 22.79739 13.623318 23.440263 13.109011 23.95457 C 12.423269 24.640312 11.623248 25.108895 10.708925 25.360334 C 9.794602 25.611773 8.800291 25.73749 7.725962 25.73749 C 6.640203 25.73749 5.671607 25.61463 4.8201436 25.368906 C 3.9686803 25.123182 3.2429474 24.740315 2.642923 24.220294 C 2.0428985 23.700272 1.585744 23.031684 1.2714454 22.214508 C .9571469 21.397331 .8 20.411592 .8 19.25726 L .8 17.508625 L 5.120154 17.508625 L 5.120154 19.222972 C 5.120154 20.32016 5.3344455 21.091608 5.7630344 21.53734 C 6.191623 21.983073 6.845926 22.205936 7.725962 22.205936 C 8.594568 22.205936 9.246014 21.983073 9.680317 21.53734 C 10.11462 21.091608 10.331769 20.32016 10.331769 19.222972 L 10.331769 9.999786 L 2.7200686 9.999786 L 2.7200686 6.2625094 L 14.68621 6.2625094 Z" fill="black"/>
      </g>
      <g id="JP-P">
        <path d="M 22.856788 6.2625094 C 24.205414 6.2625094 25.414017 6.391084 26.482632 6.6482375 C 27.551247 6.905391 28.45984 7.299687 29.208443 7.831137 C 29.957045 8.362587 30.531346 9.03689 30.931362 9.854066 C 31.33138 10.671242 31.531383 11.634124 31.531383 12.742741 C 31.531383 13.862786 31.33138 14.828526 30.931362 15.639987 C 30.531346 16.451449 29.957045 17.122895 29.208443 17.654345 C 28.45984 18.185795 27.551247 18.58009 26.482632 18.837244 C 25.414017 19.094397 24.205414 19.222972 22.856788 19.222972 L 20.525276 19.222972 L 20.525276 25.39462 L 16.170835 25.39462 L 16.170835 6.2625094 Z M 22.8225 15.65713 C 23.576817 15.65713 24.21969 15.602844 24.75114 15.494268 C 25.28259 15.385692 25.71403 15.214259 26.045473 14.979964 C 26.376915 14.745668 26.61978 14.44566 26.77407 14.079931 C 26.928363 13.714202 27.005507 13.268477 27.005507 12.742741 C 27.005507 11.714128 26.6855 10.971251 26.045473 10.51409 C 25.405447 10.056928 24.331134 9.828351 22.8225 9.828351 L 20.525276 9.828351 L 20.525276 15.65713 Z" fill="black"/>
      </g>
    </g>
  </g>
</svg>
