<?xml version="1.0" encoding="UTF-8" standalone="no"?>
<!DOCTYPE svg PUBLIC "-//W3C//DTD SVG 1.1//EN" "http://www.w3.org/Graphics/SVG/1.1/DTD/svg11.dtd">
<svg version="1.1" xmlns:dc="http://purl.org/dc/elements/1.1/" xmlns="http://www.w3.org/2000/svg" xmlns:xl="http://www.w3.org/1999/xlink" viewBox="0 0 16 16" width="16" height="16">
  <defs/>
  <g id="favicon-pinned-svg" fill-opacity="1" stroke-dasharray="none" fill="none" stroke="none" stroke-opacity="1">
    <title>favicon-pinned-svg</title>
    <g id="favicon-pinned-svg">
      <title>Layer 1</title>
      <g id="J">
        <path d="M 7.343105 9.560056 C 7.343105 10.142937 7.2759605 10.627235 7.141669 11.012965 C 7.007378 11.398695 6.811659 11.720132 6.5545055 11.977285 C 6.2116344 12.320156 5.811624 12.554448 5.3544626 12.680167 C 4.897301 12.805887 4.4001455 12.868745 3.862981 12.868745 C 3.3201016 12.868745 2.8358034 12.807315 2.4100718 12.684453 C 1.9843402 12.561591 1.6214737 12.370157 1.3214615 12.110147 C 1.0214493 11.850136 .792872 11.515842 .6357227 11.107254 C .47857345 10.698666 .4 10.205796 .4 9.62863 L .4 8.754313 L 2.560077 8.754313 L 2.560077 9.611486 C 2.560077 10.16008 2.6672227 10.545804 2.8815172 10.76867 C 3.0958116 10.991537 3.422963 11.102968 3.862981 11.102968 C 4.297284 11.102968 4.623007 10.991537 4.8401586 10.76867 C 5.05731 10.545804 5.1658845 10.16008 5.1658845 9.611486 L 5.1658845 4.999893 L 1.3600343 4.999893 L 1.3600343 3.1312547 L 7.343105 3.1312547 Z" fill="black"/>
      </g>
      <g id="P">
        <path d="M 11.428394 3.1312547 C 12.102707 3.1312547 12.707008 3.195542 13.241316 3.3241188 C 13.775623 3.4526954 14.22992 3.6498433 14.604222 3.9155684 C 14.978523 4.1812935 15.265673 4.518445 15.465681 4.927033 C 15.66569 5.335621 15.765692 5.817062 15.765692 6.3713704 C 15.765692 6.931393 15.66569 7.414263 15.465681 7.819994 C 15.265673 8.225724 14.978523 8.561447 14.604222 8.827172 C 14.22992 9.092897 13.775623 9.290045 13.241316 9.418622 C 12.707008 9.547199 12.102707 9.611486 11.428394 9.611486 L 10.262638 9.611486 L 10.262638 12.69731 L 8.085417 12.69731 L 8.085417 3.1312547 Z M 11.41125 7.828565 C 11.788409 7.828565 12.109845 7.801422 12.37557 7.747134 C 12.641296 7.692846 12.857016 7.607129 13.022737 7.489982 C 13.188458 7.372834 13.30989 7.22283 13.387035 7.039966 C 13.464181 6.857101 13.502754 6.634238 13.502754 6.3713704 C 13.502754 5.857064 13.34275 5.4856256 13.022737 5.257045 C 12.702724 5.028464 12.165567 4.9141755 11.41125 4.9141755 L 10.262638 4.9141755 L 10.262638 7.828565 Z" fill="black"/>
      </g>
    </g>
  </g>
</svg>
