<svg version="1.1" xmlns:dc="http://purl.org/dc/elements/1.1/" xmlns="http://www.w3.org/2000/svg" xmlns:xl="http://www.w3.org/1999/xlink" viewBox="0 0 100 100" width="50" height="50">
  <defs/>
  <g id="fediverse-replies-icon" stroke-dasharray="none" fill-opacity="1" stroke-opacity="1" stroke="none" fill="none">
    <path d="M 77.3602 59.64478 C 77.22487 59.889 77.06613 60.12406 76.85854 60.331645 L 61.93076 78.04859 C 61.61735 78.362 61.25204 78.58892 60.863326 78.73749 C 60.45426 78.94202 59.99941 79.0682 59.51097 79.0682 L 52.888614 79.0682 C 52.03487 79.0682 51.265586 78.71408 50.713045 78.1473 C 50.14626 77.594755 49.79214 76.82547 49.79214 75.97173 L 49.79214 66.86446 L 40.58515 66.86446 C 28.790472 66.86446 19.229365 57.30335 19.229365 45.50867 L 19.229365 44.287586 C 19.229365 32.49291 28.79149 22.9318 40.58515 22.9318 L 61.41383 22.9318 C 73.20851 22.9318 82.77063 32.49291 82.77063 44.287586 L 82.77063 45.50867 C 82.77063 50.94556 80.71005 55.87977 77.3602 59.64478 Z M 75.4665 44.18481 C 75.4665 36.48281 69.2237 30.240004 61.521695 30.240004 L 40.49764 30.240004 C 32.795636 30.240004 26.55283 36.48281 26.55283 44.18481 L 26.55283 45.65622 C 26.55283 53.358223 32.795636 59.60103 40.49764 59.60103 L 53.40859 59.60103 L 53.411646 59.60815 L 54.05577 59.60815 C 55.73578 59.60815 57.09729 60.96966 57.09729 62.649674 L 57.09729 71.76407 L 57.64373 71.76407 L 71.659766 55.129816 C 71.73405 55.055533 71.819524 54.99957 71.89991 54.933425 C 74.10804 52.46683 75.46752 49.22688 75.46752 45.65622 L 75.46752 44.18481 Z" fill="black"/>
  </g>
</svg>
